<svg width="382" height="58" viewBox="0 0 382 58" fill="none" xmlns="http://www.w3.org/2000/svg">
<mask id="path-1-inside-1_212_1015" fill="white">
<path d="M0 29C0 12.9837 12.9837 0 29 0H353C369.016 0 382 12.9837 382 29C382 45.0163 369.016 58 353 58H29C12.9837 58 0 45.0163 0 29Z"/>
</mask>
<path d="M0 29C0 12.9837 12.9837 0 29 0H353C369.016 0 382 12.9837 382 29C382 45.0163 369.016 58 353 58H29C12.9837 58 0 45.0163 0 29Z" fill="#FFCD39"/>
<path d="M0 0H382H0ZM382 29C382 47.7777 366.778 63 348 63H34C15.2223 63 0 47.7777 0 29C0 42.2548 12.9837 53 29 53H353C369.016 53 382 42.2548 382 29ZM0 58V0V58ZM382 0V58V0Z" fill="#FFC107" mask="url(#path-1-inside-1_212_1015)"/>
</svg>
