<svg width="382" height="170" viewBox="0 0 382 170" fill="none" xmlns="http://www.w3.org/2000/svg">
<g clip-path="url(#clip0_2136_29685)">
<mask id="path-1-inside-1_2136_29685" fill="white">
<path d="M0 40C0 21.1438 0 11.7157 5.85786 5.85786C11.7157 0 21.1438 0 40 0H342C360.856 0 370.284 0 376.142 5.85786C382 11.7157 382 21.1438 382 40V130C382 148.856 382 158.284 376.142 164.142C370.284 170 360.856 170 342 170H40C21.1438 170 11.7157 170 5.85786 164.142C0 158.284 0 148.856 0 130V40Z"/>
</mask>
<path d="M0 40C0 21.1438 0 11.7157 5.85786 5.85786C11.7157 0 21.1438 0 40 0H342C360.856 0 370.284 0 376.142 5.85786C382 11.7157 382 21.1438 382 40V130C382 148.856 382 158.284 376.142 164.142C370.284 170 360.856 170 342 170H40C21.1438 170 11.7157 170 5.85786 164.142C0 158.284 0 148.856 0 130V40Z" fill="url(#paint0_linear_2136_29685)"/>
<g opacity="0.4">
<path opacity="0.1" d="M233.534 -10.0386L337.267 51.7056V156.104L233.534 93.8003V-10.0386Z" fill="white"/>
<path opacity="0.2" d="M440.637 -9.97607L336.907 51.7033V155.992L440.637 93.7539V-9.97607Z" fill="white"/>
<path opacity="0.3" d="M233.534 -9.69669L337.267 -72L441 -9.69669V-9.2307L337.267 53.0726L233.534 -9.2307V-9.69669Z" fill="white"/>
<path opacity="0.1" d="M-59 49.186L44.7329 110.93V215.328L-59 153.025V49.186Z" fill="white"/>
<path opacity="0.2" d="M148.103 49.2485L44.3726 110.928V215.216L148.103 152.979V49.2485Z" fill="white"/>
<path opacity="0.3" d="M-59 49.528L44.7329 -12.7753L148.466 49.528V49.994L44.7329 112.297L-59 49.994V49.528Z" fill="white"/>
<path opacity="0.1" d="M190.103 15.9314L233.354 41.6759V85.2052L190.103 59.2275V15.9314Z" fill="white"/>
<path opacity="0.2" d="M276.455 15.9574L233.204 41.6749V85.1586L276.455 59.2081V15.9574Z" fill="white"/>
<path opacity="0.3" d="M190.103 16.0739L233.354 -9.90381L276.606 16.0739V16.2682L233.354 42.2458L190.103 16.2682V16.0739Z" fill="white"/>
<path opacity="0.3" d="M226.355 182.262L269.607 156.284L312.859 182.262V182.456L269.607 208.434L226.355 182.456V182.262Z" fill="white"/>
</g>
<path d="M30.82 52.16C29.9667 52.16 29.54 51.72 29.54 50.84V39.2C29.54 38.3333 29.9733 37.9 30.84 37.9H35.66C37.2067 37.9 38.4 38.2867 39.24 39.06C40.08 39.8333 40.5 40.9133 40.5 42.3C40.5 43.6867 40.08 44.7733 39.24 45.56C38.4 46.3333 37.2067 46.72 35.66 46.72H32.1V50.84C32.1 51.72 31.6733 52.16 30.82 52.16ZM32.1 44.7H35.26C37.1 44.7 38.02 43.9 38.02 42.3C38.02 40.7133 37.1 39.92 35.26 39.92H32.1V44.7ZM45.6869 52.2C43.4602 52.2 42.3469 50.9533 42.3469 48.46V39C42.3469 38.16 42.7602 37.74 43.5869 37.74C44.4269 37.74 44.8469 38.16 44.8469 39V48.34C44.8469 49.54 45.3469 50.14 46.3469 50.14C46.4535 50.14 46.5535 50.14 46.6469 50.14C46.7402 50.1267 46.8335 50.1133 46.9269 50.1C47.1135 50.0733 47.2402 50.1267 47.3069 50.26C47.3735 50.38 47.4069 50.6333 47.4069 51.02C47.4069 51.3533 47.3402 51.6133 47.2069 51.8C47.0735 51.9867 46.8535 52.1 46.5469 52.14C46.2669 52.18 45.9802 52.2 45.6869 52.2ZM51.9536 52.2C51.2469 52.2 50.6136 52.0667 50.0536 51.8C49.5069 51.52 49.0736 51.1467 48.7536 50.68C48.4469 50.2133 48.2936 49.6867 48.2936 49.1C48.2936 48.38 48.4803 47.8133 48.8536 47.4C49.2269 46.9733 49.8336 46.6667 50.6736 46.48C51.5136 46.2933 52.6403 46.2 54.0536 46.2H54.7536V45.78C54.7536 45.1133 54.6069 44.6333 54.3136 44.34C54.0203 44.0467 53.5269 43.9 52.8336 43.9C52.4469 43.9 52.0269 43.9467 51.5736 44.04C51.1336 44.1333 50.6669 44.2933 50.1736 44.52C49.8536 44.6667 49.5869 44.6867 49.3736 44.58C49.1603 44.46 49.0136 44.28 48.9336 44.04C48.8669 43.7867 48.8803 43.5333 48.9736 43.28C49.0803 43.0267 49.2869 42.84 49.5936 42.72C50.2069 42.4667 50.7936 42.2867 51.3536 42.18C51.9269 42.0733 52.4469 42.02 52.9136 42.02C54.3403 42.02 55.4003 42.3533 56.0936 43.02C56.7869 43.6733 57.1336 44.6933 57.1336 46.08V50.88C57.1336 51.7333 56.7469 52.16 55.9736 52.16C55.1869 52.16 54.7936 51.7333 54.7936 50.88V50.44C54.5669 50.9867 54.2069 51.42 53.7136 51.74C53.2203 52.0467 52.6336 52.2 51.9536 52.2ZM52.4736 50.48C53.1269 50.48 53.6669 50.2533 54.0936 49.8C54.5336 49.3467 54.7536 48.7733 54.7536 48.08V47.64H54.0736C52.8203 47.64 51.9469 47.74 51.4536 47.94C50.9736 48.1267 50.7336 48.4733 50.7336 48.98C50.7336 49.42 50.8869 49.78 51.1936 50.06C51.5003 50.34 51.9269 50.48 52.4736 50.48ZM62.0534 55.76C61.6001 55.76 61.2868 55.5933 61.1134 55.26C60.9401 54.9267 60.9468 54.5467 61.1334 54.12L62.2734 51.6L58.8534 43.72C58.6668 43.28 58.6668 42.8933 58.8534 42.56C59.0401 42.2267 59.4068 42.06 59.9534 42.06C60.2601 42.06 60.5068 42.1333 60.6934 42.28C60.8801 42.4133 61.0468 42.6733 61.1934 43.06L63.5934 49.06L66.0534 43.04C66.2001 42.6667 66.3734 42.4133 66.5734 42.28C66.7734 42.1333 67.0401 42.06 67.3734 42.06C67.8001 42.06 68.1001 42.2267 68.2734 42.56C68.4468 42.8933 68.4401 43.2733 68.2534 43.7L63.3934 54.8C63.2201 55.1733 63.0334 55.4267 62.8334 55.56C62.6334 55.6933 62.3734 55.76 62.0534 55.76ZM83.6705 55.76C82.8438 55.76 82.4305 55.34 82.4305 54.5V50.52C82.1505 51.0267 81.7305 51.4333 81.1705 51.74C80.6105 52.0467 79.9838 52.2 79.2905 52.2C78.4371 52.2 77.6838 51.9933 77.0305 51.58C76.3905 51.1667 75.8905 50.58 75.5305 49.82C75.1705 49.0467 74.9905 48.14 74.9905 47.1C74.9905 46.0467 75.1705 45.1467 75.5305 44.4C75.8905 43.64 76.3905 43.0533 77.0305 42.64C77.6838 42.2267 78.4371 42.02 79.2905 42.02C79.9971 42.02 80.6305 42.18 81.1905 42.5C81.7505 42.8067 82.1705 43.22 82.4505 43.74V43.32C82.4505 42.48 82.8638 42.06 83.6905 42.06C84.5171 42.06 84.9305 42.48 84.9305 43.32V54.5C84.9305 55.34 84.5105 55.76 83.6705 55.76ZM79.9905 50.3C80.7371 50.3 81.3371 50.0333 81.7905 49.5C82.2438 48.9533 82.4705 48.1533 82.4705 47.1C82.4705 46.0333 82.2438 45.24 81.7905 44.72C81.3371 44.1867 80.7371 43.92 79.9905 43.92C79.2438 43.92 78.6438 44.1867 78.1905 44.72C77.7371 45.24 77.5105 46.0333 77.5105 47.1C77.5105 48.1533 77.7371 48.9533 78.1905 49.5C78.6438 50.0333 79.2438 50.3 79.9905 50.3ZM91.0627 52.2C88.6627 52.2 87.4627 50.8533 87.4627 48.16V43.32C87.4627 42.48 87.876 42.06 88.7027 42.06C89.5427 42.06 89.9627 42.48 89.9627 43.32V48.2C89.9627 48.8933 90.1027 49.4067 90.3827 49.74C90.6627 50.0733 91.1093 50.24 91.7227 50.24C92.3893 50.24 92.936 50.0133 93.3627 49.56C93.7893 49.0933 94.0027 48.48 94.0027 47.72V43.32C94.0027 42.48 94.416 42.06 95.2427 42.06C96.0827 42.06 96.5027 42.48 96.5027 43.32V50.88C96.5027 51.7333 96.096 52.16 95.2827 52.16C94.4693 52.16 94.0627 51.7333 94.0627 50.88V50.54C93.4093 51.6467 92.4093 52.2 91.0627 52.2ZM100.345 40.22C99.878 40.22 99.5114 40.1067 99.2447 39.88C98.9914 39.64 98.8647 39.3133 98.8647 38.9C98.8647 38.4733 98.9914 38.1467 99.2447 37.92C99.5114 37.6933 99.878 37.58 100.345 37.58C101.331 37.58 101.825 38.02 101.825 38.9C101.825 39.78 101.331 40.22 100.345 40.22ZM100.345 52.14C99.9447 52.14 99.638 52.02 99.4247 51.78C99.2114 51.54 99.1047 51.2067 99.1047 50.78V43.44C99.1047 42.5333 99.518 42.08 100.345 42.08C101.185 42.08 101.605 42.5333 101.605 43.44V50.78C101.605 51.2067 101.498 51.54 101.285 51.78C101.071 52.02 100.758 52.14 100.345 52.14ZM104.802 52C104.456 52 104.196 51.8933 104.022 51.68C103.849 51.4533 103.776 51.1867 103.802 50.88C103.829 50.5733 103.969 50.28 104.222 50L108.922 44.1H104.682C104.042 44.1 103.722 43.7867 103.722 43.16C103.722 42.5333 104.042 42.22 104.682 42.22H110.602C111.002 42.22 111.296 42.3267 111.482 42.54C111.682 42.7533 111.769 43.0133 111.742 43.32C111.729 43.6133 111.596 43.9 111.342 44.18L106.582 50.12H111.062C111.702 50.12 112.022 50.4333 112.022 51.06C112.022 51.6867 111.702 52 111.062 52H104.802ZM123.585 52.2C120.998 52.2 119.705 50.92 119.705 48.36V44.1H118.665C117.998 44.1 117.665 43.7867 117.665 43.16C117.665 42.5333 117.998 42.22 118.665 42.22H119.705V40.4C119.705 39.56 120.125 39.14 120.965 39.14C121.791 39.14 122.205 39.56 122.205 40.4V42.22H124.325C124.991 42.22 125.325 42.5333 125.325 43.16C125.325 43.7867 124.991 44.1 124.325 44.1H122.205V48.22C122.205 48.86 122.345 49.34 122.625 49.66C122.905 49.98 123.358 50.14 123.985 50.14C124.211 50.14 124.411 50.12 124.585 50.08C124.758 50.04 124.911 50.0133 125.045 50C125.205 49.9867 125.338 50.04 125.445 50.16C125.551 50.2667 125.605 50.4933 125.605 50.84C125.605 51.1067 125.558 51.3467 125.465 51.56C125.385 51.76 125.231 51.9 125.005 51.98C124.831 52.0333 124.605 52.08 124.325 52.12C124.045 52.1733 123.798 52.2 123.585 52.2ZM131.143 52.2C130.129 52.2 129.249 51.9933 128.503 51.58C127.756 51.1667 127.176 50.58 126.763 49.82C126.349 49.0467 126.143 48.14 126.143 47.1C126.143 46.06 126.349 45.16 126.763 44.4C127.176 43.64 127.756 43.0533 128.503 42.64C129.249 42.2267 130.129 42.02 131.143 42.02C132.156 42.02 133.036 42.2267 133.783 42.64C134.529 43.0533 135.109 43.64 135.523 44.4C135.936 45.16 136.143 46.06 136.143 47.1C136.143 48.14 135.936 49.0467 135.523 49.82C135.109 50.58 134.529 51.1667 133.783 51.58C133.036 51.9933 132.156 52.2 131.143 52.2ZM131.143 50.3C131.889 50.3 132.489 50.0333 132.943 49.5C133.396 48.9533 133.623 48.1533 133.623 47.1C133.623 46.0333 133.396 45.24 132.943 44.72C132.489 44.1867 131.889 43.92 131.143 43.92C130.396 43.92 129.796 44.1867 129.343 44.72C128.889 45.24 128.663 46.0333 128.663 47.1C128.663 48.1533 128.889 48.9533 129.343 49.5C129.796 50.0333 130.396 50.3 131.143 50.3ZM142.766 55.8C142.046 55.8 141.346 55.7333 140.666 55.6C140 55.4667 139.393 55.26 138.846 54.98C138.526 54.82 138.333 54.6133 138.266 54.36C138.213 54.12 138.24 53.8867 138.346 53.66C138.453 53.4333 138.613 53.2667 138.826 53.16C139.053 53.0667 139.293 53.08 139.546 53.2C140.133 53.4933 140.686 53.68 141.206 53.76C141.74 53.8533 142.193 53.9 142.566 53.9C144.353 53.9 145.246 53.04 145.246 51.32V49.98C144.966 50.5267 144.533 50.96 143.946 51.28C143.373 51.6 142.733 51.76 142.026 51.76C141.146 51.76 140.38 51.56 139.726 51.16C139.073 50.7467 138.566 50.1733 138.206 49.44C137.846 48.7067 137.666 47.8533 137.666 46.88C137.666 45.9067 137.846 45.06 138.206 44.34C138.566 43.6067 139.073 43.04 139.726 42.64C140.38 42.2267 141.146 42.02 142.026 42.02C142.733 42.02 143.373 42.1733 143.946 42.48C144.52 42.7867 144.94 43.2067 145.206 43.74V43.32C145.206 42.9067 145.313 42.5933 145.526 42.38C145.753 42.1667 146.06 42.06 146.446 42.06C147.273 42.06 147.686 42.48 147.686 43.32V51.02C147.686 52.6067 147.266 53.8 146.426 54.6C145.586 55.4 144.366 55.8 142.766 55.8ZM142.706 49.86C143.48 49.86 144.093 49.5933 144.546 49.06C145 48.5267 145.226 47.8 145.226 46.88C145.226 45.96 145 45.24 144.546 44.72C144.093 44.1867 143.48 43.92 142.706 43.92C141.933 43.92 141.32 44.1867 140.866 44.72C140.413 45.24 140.186 45.96 140.186 46.88C140.186 47.8 140.413 48.5267 140.866 49.06C141.32 49.5933 141.933 49.86 142.706 49.86ZM155.097 52.2C153.99 52.2 153.037 51.9933 152.237 51.58C151.437 51.1667 150.817 50.58 150.377 49.82C149.95 49.06 149.737 48.16 149.737 47.12C149.737 46.1067 149.943 45.22 150.357 44.46C150.783 43.7 151.363 43.1067 152.097 42.68C152.843 42.24 153.69 42.02 154.637 42.02C156.023 42.02 157.117 42.46 157.917 43.34C158.73 44.22 159.137 45.42 159.137 46.94C159.137 47.4333 158.817 47.68 158.177 47.68H152.137C152.323 49.4267 153.323 50.3 155.137 50.3C155.483 50.3 155.87 50.26 156.297 50.18C156.737 50.0867 157.15 49.9333 157.537 49.72C157.883 49.52 158.177 49.46 158.417 49.54C158.657 49.6067 158.823 49.7467 158.917 49.96C159.023 50.1733 159.037 50.4133 158.957 50.68C158.89 50.9333 158.703 51.1533 158.397 51.34C157.93 51.6333 157.39 51.8533 156.777 52C156.177 52.1333 155.617 52.2 155.097 52.2ZM154.737 43.72C154.003 43.72 153.41 43.9467 152.957 44.4C152.503 44.8533 152.23 45.4667 152.137 46.24H157.057C157.003 45.4267 156.777 44.8067 156.377 44.38C155.99 43.94 155.443 43.72 154.737 43.72ZM165.557 52.2C162.971 52.2 161.677 50.92 161.677 48.36V44.1H160.637C159.971 44.1 159.637 43.7867 159.637 43.16C159.637 42.5333 159.971 42.22 160.637 42.22H161.677V40.4C161.677 39.56 162.097 39.14 162.937 39.14C163.764 39.14 164.177 39.56 164.177 40.4V42.22H166.297C166.964 42.22 167.297 42.5333 167.297 43.16C167.297 43.7867 166.964 44.1 166.297 44.1H164.177V48.22C164.177 48.86 164.317 49.34 164.597 49.66C164.877 49.98 165.331 50.14 165.957 50.14C166.184 50.14 166.384 50.12 166.557 50.08C166.731 50.04 166.884 50.0133 167.017 50C167.177 49.9867 167.311 50.04 167.417 50.16C167.524 50.2667 167.577 50.4933 167.577 50.84C167.577 51.1067 167.531 51.3467 167.437 51.56C167.357 51.76 167.204 51.9 166.977 51.98C166.804 52.0333 166.577 52.08 166.297 52.12C166.017 52.1733 165.771 52.2 165.557 52.2ZM170.247 52.16C169.42 52.16 169.007 51.7333 169.007 50.88V39C169.007 38.16 169.42 37.74 170.247 37.74C171.087 37.74 171.507 38.16 171.507 39V43.64C171.84 43.1067 172.287 42.7067 172.847 42.44C173.407 42.16 174.027 42.02 174.707 42.02C177.014 42.02 178.167 43.36 178.167 46.04V50.88C178.167 51.7333 177.754 52.16 176.927 52.16C176.087 52.16 175.667 51.7333 175.667 50.88V46.16C175.667 45.4 175.52 44.8467 175.227 44.5C174.947 44.1533 174.507 43.98 173.907 43.98C173.174 43.98 172.587 44.2133 172.147 44.68C171.72 45.1333 171.507 45.74 171.507 46.5V50.88C171.507 51.7333 171.087 52.16 170.247 52.16ZM185.526 52.2C184.42 52.2 183.466 51.9933 182.666 51.58C181.866 51.1667 181.246 50.58 180.806 49.82C180.38 49.06 180.166 48.16 180.166 47.12C180.166 46.1067 180.373 45.22 180.786 44.46C181.213 43.7 181.793 43.1067 182.526 42.68C183.273 42.24 184.12 42.02 185.066 42.02C186.453 42.02 187.546 42.46 188.346 43.34C189.16 44.22 189.566 45.42 189.566 46.94C189.566 47.4333 189.246 47.68 188.606 47.68H182.566C182.753 49.4267 183.753 50.3 185.566 50.3C185.913 50.3 186.3 50.26 186.726 50.18C187.166 50.0867 187.58 49.9333 187.966 49.72C188.313 49.52 188.606 49.46 188.846 49.54C189.086 49.6067 189.253 49.7467 189.346 49.96C189.453 50.1733 189.466 50.4133 189.386 50.68C189.32 50.9333 189.133 51.1533 188.826 51.34C188.36 51.6333 187.82 51.8533 187.206 52C186.606 52.1333 186.046 52.2 185.526 52.2ZM185.166 43.72C184.433 43.72 183.84 43.9467 183.386 44.4C182.933 44.8533 182.66 45.4667 182.566 46.24H187.486C187.433 45.4267 187.206 44.8067 186.806 44.38C186.42 43.94 185.873 43.72 185.166 43.72ZM192.826 52.16C191.973 52.16 191.546 51.7333 191.546 50.88V43.32C191.546 42.48 191.953 42.06 192.766 42.06C193.579 42.06 193.986 42.48 193.986 43.32V43.94C194.466 42.7933 195.493 42.1533 197.066 42.02C197.639 41.9533 197.959 42.28 198.026 43C198.093 43.7067 197.746 44.1 196.986 44.18L196.546 44.22C194.906 44.38 194.086 45.22 194.086 46.74V50.88C194.086 51.7333 193.666 52.16 192.826 52.16ZM208.588 52.16C207.894 52.16 207.414 51.8133 207.148 51.12L204.248 43.72C204.074 43.2533 204.081 42.86 204.268 42.54C204.468 42.22 204.814 42.06 205.308 42.06C205.601 42.06 205.841 42.1333 206.028 42.28C206.214 42.4133 206.374 42.6733 206.508 43.06L208.708 49.08L210.968 42.9C211.181 42.34 211.561 42.06 212.108 42.06C212.668 42.06 213.048 42.34 213.248 42.9L215.508 49.14L217.728 43C217.861 42.64 218.028 42.3933 218.228 42.26C218.441 42.1267 218.674 42.06 218.928 42.06C219.408 42.06 219.721 42.2333 219.868 42.58C220.014 42.9133 220.001 43.2933 219.828 43.72L216.948 51.12C216.668 51.8133 216.188 52.16 215.508 52.16C214.801 52.16 214.321 51.8133 214.068 51.12L212.028 45.7L210.028 51.1C209.774 51.8067 209.294 52.16 208.588 52.16ZM223.099 40.22C222.632 40.22 222.265 40.1067 221.999 39.88C221.745 39.64 221.619 39.3133 221.619 38.9C221.619 38.4733 221.745 38.1467 221.999 37.92C222.265 37.6933 222.632 37.58 223.099 37.58C224.085 37.58 224.579 38.02 224.579 38.9C224.579 39.78 224.085 40.22 223.099 40.22ZM223.099 52.14C222.699 52.14 222.392 52.02 222.179 51.78C221.965 51.54 221.859 51.2067 221.859 50.78V43.44C221.859 42.5333 222.272 42.08 223.099 42.08C223.939 42.08 224.359 42.5333 224.359 43.44V50.78C224.359 51.2067 224.252 51.54 224.039 51.78C223.825 52.02 223.512 52.14 223.099 52.14ZM231.436 52.2C228.85 52.2 227.556 50.92 227.556 48.36V44.1H226.516C225.85 44.1 225.516 43.7867 225.516 43.16C225.516 42.5333 225.85 42.22 226.516 42.22H227.556V40.4C227.556 39.56 227.976 39.14 228.816 39.14C229.643 39.14 230.056 39.56 230.056 40.4V42.22H232.176C232.843 42.22 233.176 42.5333 233.176 43.16C233.176 43.7867 232.843 44.1 232.176 44.1H230.056V48.22C230.056 48.86 230.196 49.34 230.476 49.66C230.756 49.98 231.21 50.14 231.836 50.14C232.063 50.14 232.263 50.12 232.436 50.08C232.61 50.04 232.763 50.0133 232.896 50C233.056 49.9867 233.19 50.04 233.296 50.16C233.403 50.2667 233.456 50.4933 233.456 50.84C233.456 51.1067 233.41 51.3467 233.316 51.56C233.236 51.76 233.083 51.9 232.856 51.98C232.683 52.0333 232.456 52.08 232.176 52.12C231.896 52.1733 231.65 52.2 231.436 52.2ZM236.126 52.16C235.299 52.16 234.886 51.7333 234.886 50.88V39C234.886 38.16 235.299 37.74 236.126 37.74C236.966 37.74 237.386 38.16 237.386 39V43.64C237.719 43.1067 238.166 42.7067 238.726 42.44C239.286 42.16 239.906 42.02 240.586 42.02C242.893 42.02 244.046 43.36 244.046 46.04V50.88C244.046 51.7333 243.633 52.16 242.806 52.16C241.966 52.16 241.546 51.7333 241.546 50.88V46.16C241.546 45.4 241.399 44.8467 241.106 44.5C240.826 44.1533 240.386 43.98 239.786 43.98C239.053 43.98 238.466 44.2133 238.026 44.68C237.599 45.1333 237.386 45.74 237.386 46.5V50.88C237.386 51.7333 236.966 52.16 236.126 52.16ZM31.78 87.76C31.3267 87.76 31.0133 87.5933 30.84 87.26C30.6667 86.9267 30.6733 86.5467 30.86 86.12L32 83.6L28.58 75.72C28.3933 75.28 28.3933 74.8933 28.58 74.56C28.7667 74.2267 29.1333 74.06 29.68 74.06C29.9867 74.06 30.2333 74.1333 30.42 74.28C30.6067 74.4133 30.7733 74.6733 30.92 75.06L33.32 81.06L35.78 75.04C35.9267 74.6667 36.1 74.4133 36.3 74.28C36.5 74.1333 36.7667 74.06 37.1 74.06C37.5267 74.06 37.8267 74.2267 38 74.56C38.1733 74.8933 38.1667 75.2733 37.98 75.7L33.12 86.8C32.9467 87.1733 32.76 87.4267 32.56 87.56C32.36 87.6933 32.1 87.76 31.78 87.76ZM44.092 84.2C43.0787 84.2 42.1987 83.9933 41.452 83.58C40.7054 83.1667 40.1254 82.58 39.712 81.82C39.2987 81.0467 39.092 80.14 39.092 79.1C39.092 78.06 39.2987 77.16 39.712 76.4C40.1254 75.64 40.7054 75.0533 41.452 74.64C42.1987 74.2267 43.0787 74.02 44.092 74.02C45.1054 74.02 45.9854 74.2267 46.732 74.64C47.4787 75.0533 48.0587 75.64 48.472 76.4C48.8854 77.16 49.092 78.06 49.092 79.1C49.092 80.14 48.8854 81.0467 48.472 81.82C48.0587 82.58 47.4787 83.1667 46.732 83.58C45.9854 83.9933 45.1054 84.2 44.092 84.2ZM44.092 82.3C44.8387 82.3 45.4387 82.0333 45.892 81.5C46.3454 80.9533 46.572 80.1533 46.572 79.1C46.572 78.0333 46.3454 77.24 45.892 76.72C45.4387 76.1867 44.8387 75.92 44.092 75.92C43.3454 75.92 42.7454 76.1867 42.292 76.72C41.8387 77.24 41.612 78.0333 41.612 79.1C41.612 80.1533 41.8387 80.9533 42.292 81.5C42.7454 82.0333 43.3454 82.3 44.092 82.3ZM54.6955 84.2C52.2955 84.2 51.0955 82.8533 51.0955 80.16V75.32C51.0955 74.48 51.5088 74.06 52.3355 74.06C53.1755 74.06 53.5955 74.48 53.5955 75.32V80.2C53.5955 80.8933 53.7355 81.4067 54.0155 81.74C54.2955 82.0733 54.7421 82.24 55.3555 82.24C56.0221 82.24 56.5688 82.0133 56.9955 81.56C57.4221 81.0933 57.6355 80.48 57.6355 79.72V75.32C57.6355 74.48 58.0488 74.06 58.8755 74.06C59.7155 74.06 60.1355 74.48 60.1355 75.32V82.88C60.1355 83.7333 59.7288 84.16 58.9155 84.16C58.1021 84.16 57.6955 83.7333 57.6955 82.88V82.54C57.0421 83.6467 56.0421 84.2 54.6955 84.2ZM64.0175 84.16C63.1642 84.16 62.7375 83.7333 62.7375 82.88V75.32C62.7375 74.48 63.1442 74.06 63.9575 74.06C64.7708 74.06 65.1775 74.48 65.1775 75.32V75.94C65.6575 74.7933 66.6842 74.1533 68.2575 74.02C68.8308 73.9533 69.1508 74.28 69.2175 75C69.2842 75.7067 68.9375 76.1 68.1775 76.18L67.7375 76.22C66.0975 76.38 65.2775 77.22 65.2775 78.74V82.88C65.2775 83.7333 64.8575 84.16 64.0175 84.16ZM77.9192 84.16C77.0792 84.16 76.6592 83.7333 76.6592 82.88V76.1H75.7392C75.0726 76.1 74.7392 75.7867 74.7392 75.16C74.7392 74.5333 75.0726 74.22 75.7392 74.22H76.6592V74.2C76.6592 72.8267 77.0059 71.8 77.6992 71.12C78.3926 70.4267 79.3926 70.02 80.6992 69.9L81.3792 69.84C81.7259 69.8133 81.9792 69.8867 82.1392 70.06C82.2992 70.2333 82.3792 70.4467 82.3792 70.7C82.3926 70.94 82.3326 71.16 82.1992 71.36C82.0659 71.5467 81.8726 71.6533 81.6192 71.68L81.3392 71.7C80.5792 71.7533 80.0259 71.9467 79.6792 72.28C79.3326 72.6133 79.1592 73.12 79.1592 73.8V74.22H80.8592C81.5259 74.22 81.8592 74.5333 81.8592 75.16C81.8592 75.7867 81.5259 76.1 80.8592 76.1H79.1592V82.88C79.1592 83.7333 78.7459 84.16 77.9192 84.16ZM84.5644 84.16C83.711 84.16 83.2844 83.7333 83.2844 82.88V75.32C83.2844 74.48 83.691 74.06 84.5044 74.06C85.3177 74.06 85.7244 74.48 85.7244 75.32V75.94C86.2044 74.7933 87.231 74.1533 88.8044 74.02C89.3777 73.9533 89.6977 74.28 89.7644 75C89.831 75.7067 89.4844 76.1 88.7244 76.18L88.2844 76.22C86.6444 76.38 85.8244 77.22 85.8244 78.74V82.88C85.8244 83.7333 85.4044 84.16 84.5644 84.16ZM92.3564 72.22C91.8897 72.22 91.5231 72.1067 91.2564 71.88C91.0031 71.64 90.8764 71.3133 90.8764 70.9C90.8764 70.4733 91.0031 70.1467 91.2564 69.92C91.5231 69.6933 91.8897 69.58 92.3564 69.58C93.3431 69.58 93.8364 70.02 93.8364 70.9C93.8364 71.78 93.3431 72.22 92.3564 72.22ZM92.3564 84.14C91.9564 84.14 91.6497 84.02 91.4364 83.78C91.2231 83.54 91.1164 83.2067 91.1164 82.78V75.44C91.1164 74.5333 91.5297 74.08 92.3564 74.08C93.1964 74.08 93.6164 74.5333 93.6164 75.44V82.78C93.6164 83.2067 93.5097 83.54 93.2964 83.78C93.0831 84.02 92.7697 84.14 92.3564 84.14ZM101.034 84.2C99.9274 84.2 98.9741 83.9933 98.1741 83.58C97.3741 83.1667 96.7541 82.58 96.3141 81.82C95.8874 81.06 95.6741 80.16 95.6741 79.12C95.6741 78.1067 95.8807 77.22 96.2941 76.46C96.7207 75.7 97.3007 75.1067 98.0341 74.68C98.7807 74.24 99.6274 74.02 100.574 74.02C101.961 74.02 103.054 74.46 103.854 75.34C104.667 76.22 105.074 77.42 105.074 78.94C105.074 79.4333 104.754 79.68 104.114 79.68H98.0741C98.2607 81.4267 99.2607 82.3 101.074 82.3C101.421 82.3 101.807 82.26 102.234 82.18C102.674 82.0867 103.087 81.9333 103.474 81.72C103.821 81.52 104.114 81.46 104.354 81.54C104.594 81.6067 104.761 81.7467 104.854 81.96C104.961 82.1733 104.974 82.4133 104.894 82.68C104.827 82.9333 104.641 83.1533 104.334 83.34C103.867 83.6333 103.327 83.8533 102.714 84C102.114 84.1333 101.554 84.2 101.034 84.2ZM100.674 75.72C99.9407 75.72 99.3474 75.9467 98.8941 76.4C98.4407 76.8533 98.1674 77.4667 98.0741 78.24H102.994C102.941 77.4267 102.714 76.8067 102.314 76.38C101.927 75.94 101.381 75.72 100.674 75.72ZM108.294 84.16C107.467 84.16 107.054 83.7333 107.054 82.88V75.32C107.054 74.48 107.461 74.06 108.274 74.06C109.087 74.06 109.494 74.48 109.494 75.32V75.74C109.827 75.18 110.274 74.7533 110.834 74.46C111.407 74.1667 112.047 74.02 112.754 74.02C115.061 74.02 116.214 75.36 116.214 78.04V82.88C116.214 83.7333 115.801 84.16 114.974 84.16C114.134 84.16 113.714 83.7333 113.714 82.88V78.16C113.714 77.4 113.567 76.8467 113.274 76.5C112.994 76.1533 112.554 75.98 111.954 75.98C111.221 75.98 110.634 76.2133 110.194 76.68C109.767 77.1333 109.554 77.74 109.554 78.5V82.88C109.554 83.7333 109.134 84.16 108.294 84.16ZM122.513 84.2C121.66 84.2 120.906 83.9933 120.253 83.58C119.613 83.1667 119.113 82.58 118.753 81.82C118.393 81.0467 118.213 80.14 118.213 79.1C118.213 78.0467 118.393 77.1467 118.753 76.4C119.113 75.64 119.613 75.0533 120.253 74.64C120.906 74.2267 121.66 74.02 122.513 74.02C123.206 74.02 123.833 74.1733 124.393 74.48C124.953 74.7867 125.373 75.1933 125.653 75.7V71C125.653 70.16 126.066 69.74 126.893 69.74C127.733 69.74 128.153 70.16 128.153 71V82.88C128.153 83.7333 127.74 84.16 126.913 84.16C126.086 84.16 125.673 83.7333 125.673 82.88V82.46C125.393 82.9933 124.973 83.42 124.413 83.74C123.853 84.0467 123.22 84.2 122.513 84.2ZM123.213 82.3C123.96 82.3 124.56 82.0333 125.013 81.5C125.466 80.9533 125.693 80.1533 125.693 79.1C125.693 78.0333 125.466 77.24 125.013 76.72C124.56 76.1867 123.96 75.92 123.213 75.92C122.466 75.92 121.866 76.1867 121.413 76.72C120.96 77.24 120.733 78.0333 120.733 79.1C120.733 80.1533 120.96 80.9533 121.413 81.5C121.866 82.0333 122.466 82.3 123.213 82.3ZM134.325 84.2C133.752 84.2 133.145 84.14 132.505 84.02C131.865 83.9 131.292 83.6933 130.785 83.4C130.505 83.24 130.332 83.0467 130.265 82.82C130.199 82.58 130.205 82.36 130.285 82.16C130.379 81.9467 130.525 81.7933 130.725 81.7C130.939 81.6067 131.185 81.6267 131.465 81.76C131.999 82.0133 132.499 82.1933 132.965 82.3C133.432 82.3933 133.892 82.44 134.345 82.44C134.985 82.44 135.459 82.3333 135.765 82.12C136.085 81.8933 136.245 81.6 136.245 81.24C136.245 80.68 135.832 80.32 135.005 80.16L133.005 79.78C131.312 79.46 130.465 78.58 130.465 77.14C130.465 76.5 130.639 75.9467 130.985 75.48C131.345 75.0133 131.839 74.6533 132.465 74.4C133.092 74.1467 133.812 74.02 134.625 74.02C135.799 74.02 136.845 74.28 137.765 74.8C138.019 74.9333 138.165 75.12 138.205 75.36C138.259 75.5867 138.232 75.8067 138.125 76.02C138.032 76.22 137.879 76.3667 137.665 76.46C137.452 76.54 137.205 76.5133 136.925 76.38C136.512 76.1667 136.112 76.0133 135.725 75.92C135.352 75.8267 134.992 75.78 134.645 75.78C133.992 75.78 133.505 75.8933 133.185 76.12C132.879 76.3467 132.725 76.6467 132.725 77.02C132.725 77.6067 133.105 77.9667 133.865 78.1L135.865 78.48C136.732 78.64 137.385 78.9333 137.825 79.36C138.279 79.7867 138.505 80.36 138.505 81.08C138.505 82.0533 138.125 82.82 137.365 83.38C136.605 83.9267 135.592 84.2 134.325 84.2ZM147.181 84.16C146.354 84.16 145.941 83.7333 145.941 82.88V75.32C145.941 74.48 146.347 74.06 147.161 74.06C147.974 74.06 148.381 74.48 148.381 75.32V75.74C148.714 75.18 149.161 74.7533 149.721 74.46C150.294 74.1667 150.934 74.02 151.641 74.02C153.947 74.02 155.101 75.36 155.101 78.04V82.88C155.101 83.7333 154.687 84.16 153.861 84.16C153.021 84.16 152.601 83.7333 152.601 82.88V78.16C152.601 77.4 152.454 76.8467 152.161 76.5C151.881 76.1533 151.441 75.98 150.841 75.98C150.107 75.98 149.521 76.2133 149.081 76.68C148.654 77.1333 148.441 77.74 148.441 78.5V82.88C148.441 83.7333 148.021 84.16 147.181 84.16ZM162.1 84.2C161.087 84.2 160.207 83.9933 159.46 83.58C158.713 83.1667 158.133 82.58 157.72 81.82C157.307 81.0467 157.1 80.14 157.1 79.1C157.1 78.06 157.307 77.16 157.72 76.4C158.133 75.64 158.713 75.0533 159.46 74.64C160.207 74.2267 161.087 74.02 162.1 74.02C163.113 74.02 163.993 74.2267 164.74 74.64C165.487 75.0533 166.067 75.64 166.48 76.4C166.893 77.16 167.1 78.06 167.1 79.1C167.1 80.14 166.893 81.0467 166.48 81.82C166.067 82.58 165.487 83.1667 164.74 83.58C163.993 83.9933 163.113 84.2 162.1 84.2ZM162.1 82.3C162.847 82.3 163.447 82.0333 163.9 81.5C164.353 80.9533 164.58 80.1533 164.58 79.1C164.58 78.0333 164.353 77.24 163.9 76.72C163.447 76.1867 162.847 75.92 162.1 75.92C161.353 75.92 160.753 76.1867 160.3 76.72C159.847 77.24 159.62 78.0333 159.62 79.1C159.62 80.1533 159.847 80.9533 160.3 81.5C160.753 82.0333 161.353 82.3 162.1 82.3ZM172.748 84.16C172.055 84.16 171.575 83.8133 171.308 83.12L168.408 75.72C168.235 75.2533 168.241 74.86 168.428 74.54C168.628 74.22 168.975 74.06 169.468 74.06C169.761 74.06 170.001 74.1333 170.188 74.28C170.375 74.4133 170.535 74.6733 170.668 75.06L172.868 81.08L175.128 74.9C175.341 74.34 175.721 74.06 176.268 74.06C176.828 74.06 177.208 74.34 177.408 74.9L179.668 81.14L181.888 75C182.021 74.64 182.188 74.3933 182.388 74.26C182.601 74.1267 182.835 74.06 183.088 74.06C183.568 74.06 183.881 74.2333 184.028 74.58C184.175 74.9133 184.161 75.2933 183.988 75.72L181.108 83.12C180.828 83.8133 180.348 84.16 179.668 84.16C178.961 84.16 178.481 83.8133 178.228 83.12L176.188 77.7L174.188 83.1C173.935 83.8067 173.455 84.16 172.748 84.16ZM187.219 79.94C186.699 79.94 186.419 79.6333 186.379 79.02L185.779 71.38C185.739 70.8867 185.845 70.4933 186.099 70.2C186.352 69.8933 186.725 69.74 187.219 69.74C187.699 69.74 188.059 69.8933 188.299 70.2C188.552 70.4933 188.659 70.8867 188.619 71.38L188.019 79.02C187.979 79.6333 187.712 79.94 187.219 79.94ZM187.219 84.1C186.765 84.1 186.399 83.96 186.119 83.68C185.852 83.4 185.719 83.04 185.719 82.6C185.719 82.1733 185.852 81.8267 186.119 81.56C186.399 81.28 186.765 81.14 187.219 81.14C187.685 81.14 188.045 81.28 188.299 81.56C188.565 81.8267 188.699 82.1733 188.699 82.6C188.699 83.04 188.565 83.4 188.299 83.68C188.045 83.96 187.685 84.1 187.219 84.1Z" fill="white"/>
<rect x="28" y="109" width="113" height="32" rx="16" fill="white"/>
<path d="M46.0866 130.098C45.5732 130.098 45.3166 129.841 45.3166 129.328V120.914C45.3166 120.391 45.5779 120.13 46.1006 120.13H51.0846C51.4859 120.13 51.6866 120.321 51.6866 120.704C51.6866 121.105 51.4859 121.306 51.0846 121.306H46.7726V124.456H50.8046C51.2059 124.456 51.4066 124.647 51.4066 125.03C51.4066 125.431 51.2059 125.632 50.8046 125.632H46.7726V129.328C46.7726 129.841 46.5439 130.098 46.0866 130.098ZM54.211 121.642C53.931 121.642 53.7117 121.572 53.553 121.432C53.4037 121.292 53.329 121.096 53.329 120.844C53.329 120.312 53.623 120.046 54.211 120.046C54.799 120.046 55.093 120.312 55.093 120.844C55.093 121.376 54.799 121.642 54.211 121.642ZM54.211 130.084C53.7443 130.084 53.511 129.827 53.511 129.314V123.854C53.511 123.35 53.7443 123.098 54.211 123.098C54.687 123.098 54.925 123.35 54.925 123.854V129.314C54.925 129.827 54.687 130.084 54.211 130.084ZM57.8153 130.098C57.3486 130.098 57.1153 129.86 57.1153 129.384V123.784C57.1153 123.308 57.344 123.07 57.8013 123.07C58.2586 123.07 58.4873 123.308 58.4873 123.784V124.302C58.7206 123.891 59.038 123.579 59.4393 123.364C59.85 123.149 60.3073 123.042 60.8113 123.042C62.426 123.042 63.2333 123.957 63.2333 125.786V129.384C63.2333 129.86 63 130.098 62.5333 130.098C62.0573 130.098 61.8193 129.86 61.8193 129.384V125.87C61.8193 125.282 61.7026 124.853 61.4693 124.582C61.2453 124.311 60.8906 124.176 60.4053 124.176C59.836 124.176 59.3786 124.358 59.0333 124.722C58.6973 125.077 58.5293 125.548 58.5293 126.136V129.384C58.5293 129.86 58.2913 130.098 57.8153 130.098ZM67.9857 130.126C67.3884 130.126 66.861 129.986 66.4037 129.706C65.9557 129.417 65.6057 129.006 65.3537 128.474C65.1017 127.942 64.9757 127.312 64.9757 126.584C64.9757 125.856 65.1017 125.231 65.3537 124.708C65.6057 124.176 65.9557 123.765 66.4037 123.476C66.8517 123.187 67.379 123.042 67.9857 123.042C68.499 123.042 68.9564 123.154 69.3577 123.378C69.759 123.602 70.0577 123.905 70.2537 124.288V120.746C70.2537 120.27 70.487 120.032 70.9537 120.032C71.4297 120.032 71.6677 120.27 71.6677 120.746V129.384C71.6677 129.86 71.4344 130.098 70.9677 130.098C70.501 130.098 70.2677 129.86 70.2677 129.384V128.852C70.0624 129.244 69.759 129.557 69.3577 129.79C68.9564 130.014 68.499 130.126 67.9857 130.126ZM68.3497 129.034C68.9284 129.034 69.395 128.824 69.7497 128.404C70.1044 127.984 70.2817 127.377 70.2817 126.584C70.2817 125.791 70.1044 125.189 69.7497 124.778C69.395 124.358 68.9284 124.148 68.3497 124.148C67.7617 124.148 67.2904 124.358 66.9357 124.778C66.581 125.189 66.4037 125.791 66.4037 126.584C66.4037 127.377 66.581 127.984 66.9357 128.404C67.2904 128.824 67.7617 129.034 68.3497 129.034ZM78.6686 130.098C78.1553 130.098 77.8986 129.841 77.8986 129.328V120.914C77.8986 120.391 78.1599 120.13 78.6826 120.13H83.6666C84.0679 120.13 84.2686 120.321 84.2686 120.704C84.2686 121.105 84.0679 121.306 83.6666 121.306H79.3546V124.456H83.3866C83.7879 124.456 83.9886 124.647 83.9886 125.03C83.9886 125.431 83.7879 125.632 83.3866 125.632H79.3546V129.328C79.3546 129.841 79.1259 130.098 78.6686 130.098ZM86.2738 130.098C85.7978 130.098 85.5598 129.86 85.5598 129.384V123.784C85.5598 123.308 85.7885 123.07 86.2458 123.07C86.7032 123.07 86.9318 123.308 86.9318 123.784V124.386C87.1185 123.966 87.3985 123.644 87.7718 123.42C88.1545 123.196 88.6165 123.065 89.1578 123.028C89.5032 123 89.6898 123.187 89.7178 123.588C89.7552 123.999 89.5545 124.223 89.1158 124.26L88.8498 124.288C87.6085 124.409 86.9878 125.049 86.9878 126.206V129.384C86.9878 129.86 86.7498 130.098 86.2738 130.098ZM91.6825 121.642C91.4025 121.642 91.1831 121.572 91.0245 121.432C90.8751 121.292 90.8005 121.096 90.8005 120.844C90.8005 120.312 91.0945 120.046 91.6825 120.046C92.2705 120.046 92.5645 120.312 92.5645 120.844C92.5645 121.376 92.2705 121.642 91.6825 121.642ZM91.6825 130.084C91.2158 130.084 90.9825 129.827 90.9825 129.314V123.854C90.9825 123.35 91.2158 123.098 91.6825 123.098C92.1585 123.098 92.3965 123.35 92.3965 123.854V129.314C92.3965 129.827 92.1585 130.084 91.6825 130.084ZM97.7928 130.126C96.6728 130.126 95.7908 129.813 95.1468 129.188C94.5028 128.553 94.1808 127.69 94.1808 126.598C94.1808 125.898 94.3208 125.282 94.6008 124.75C94.8901 124.209 95.2868 123.789 95.7908 123.49C96.2948 123.191 96.8734 123.042 97.5268 123.042C98.4694 123.042 99.2114 123.345 99.7528 123.952C100.294 124.549 100.565 125.375 100.565 126.43C100.565 126.747 100.378 126.906 100.005 126.906H95.5528C95.6554 128.325 96.4068 129.034 97.8068 129.034C98.0868 129.034 98.3808 129.001 98.6888 128.936C98.9968 128.861 99.2954 128.731 99.5848 128.544C99.7808 128.432 99.9488 128.395 100.089 128.432C100.238 128.46 100.345 128.539 100.411 128.67C100.476 128.791 100.485 128.931 100.439 129.09C100.401 129.239 100.294 129.37 100.117 129.482C99.7994 129.697 99.4261 129.86 98.9968 129.972C98.5768 130.075 98.1754 130.126 97.7928 130.126ZM97.5828 124.036C96.9948 124.036 96.5281 124.218 96.1828 124.582C95.8374 124.946 95.6274 125.431 95.5528 126.038H99.3748C99.3468 125.403 99.1788 124.913 98.8708 124.568C98.5628 124.213 98.1334 124.036 97.5828 124.036ZM103.006 130.098C102.54 130.098 102.306 129.86 102.306 129.384V123.784C102.306 123.308 102.535 123.07 102.992 123.07C103.45 123.07 103.678 123.308 103.678 123.784V124.302C103.912 123.891 104.229 123.579 104.63 123.364C105.041 123.149 105.498 123.042 106.002 123.042C107.617 123.042 108.424 123.957 108.424 125.786V129.384C108.424 129.86 108.191 130.098 107.724 130.098C107.248 130.098 107.01 129.86 107.01 129.384V125.87C107.01 125.282 106.894 124.853 106.66 124.582C106.436 124.311 106.082 124.176 105.596 124.176C105.027 124.176 104.57 124.358 104.224 124.722C103.888 125.077 103.72 125.548 103.72 126.136V129.384C103.72 129.86 103.482 130.098 103.006 130.098ZM113.177 130.126C112.579 130.126 112.052 129.986 111.595 129.706C111.147 129.417 110.797 129.006 110.545 128.474C110.293 127.942 110.167 127.312 110.167 126.584C110.167 125.856 110.293 125.231 110.545 124.708C110.797 124.176 111.147 123.765 111.595 123.476C112.043 123.187 112.57 123.042 113.177 123.042C113.69 123.042 114.147 123.154 114.549 123.378C114.95 123.602 115.249 123.905 115.445 124.288V120.746C115.445 120.27 115.678 120.032 116.145 120.032C116.621 120.032 116.859 120.27 116.859 120.746V129.384C116.859 129.86 116.625 130.098 116.159 130.098C115.692 130.098 115.459 129.86 115.459 129.384V128.852C115.253 129.244 114.95 129.557 114.549 129.79C114.147 130.014 113.69 130.126 113.177 130.126ZM113.541 129.034C114.119 129.034 114.586 128.824 114.941 128.404C115.295 127.984 115.473 127.377 115.473 126.584C115.473 125.791 115.295 125.189 114.941 124.778C114.586 124.358 114.119 124.148 113.541 124.148C112.953 124.148 112.481 124.358 112.127 124.778C111.772 125.189 111.595 125.791 111.595 126.584C111.595 127.377 111.772 127.984 112.127 128.404C112.481 128.824 112.953 129.034 113.541 129.034ZM121.438 130.126C121.028 130.126 120.603 130.079 120.164 129.986C119.726 129.893 119.329 129.734 118.974 129.51C118.816 129.417 118.718 129.3 118.68 129.16C118.643 129.02 118.652 128.889 118.708 128.768C118.764 128.647 118.853 128.563 118.974 128.516C119.105 128.46 119.25 128.474 119.408 128.558C119.772 128.754 120.122 128.894 120.458 128.978C120.794 129.062 121.126 129.104 121.452 129.104C121.947 129.104 122.32 129.015 122.572 128.838C122.824 128.661 122.95 128.423 122.95 128.124C122.95 127.881 122.866 127.695 122.698 127.564C122.53 127.424 122.278 127.317 121.942 127.242L120.612 126.976C119.436 126.733 118.848 126.127 118.848 125.156C118.848 124.512 119.105 123.999 119.618 123.616C120.132 123.233 120.804 123.042 121.634 123.042C122.474 123.042 123.198 123.247 123.804 123.658C123.954 123.751 124.042 123.868 124.07 124.008C124.098 124.139 124.08 124.265 124.014 124.386C123.949 124.498 123.851 124.577 123.72 124.624C123.599 124.671 123.454 124.652 123.286 124.568C123.006 124.4 122.726 124.279 122.446 124.204C122.166 124.12 121.896 124.078 121.634 124.078C121.149 124.078 120.78 124.171 120.528 124.358C120.276 124.535 120.15 124.778 120.15 125.086C120.15 125.553 120.458 125.851 121.074 125.982L122.404 126.248C123.011 126.369 123.468 126.575 123.776 126.864C124.094 127.153 124.252 127.545 124.252 128.04C124.252 128.693 123.996 129.207 123.482 129.58C122.969 129.944 122.288 130.126 121.438 130.126Z" fill="#6949FF"/>
<path d="M222.624 130.594C223.073 132.722 222.88 134.936 222.07 136.955C221.26 138.974 219.87 140.708 218.075 141.937C216.28 143.166 214.16 143.835 211.985 143.86C209.81 143.884 207.676 143.263 205.853 142.075C204.031 140.887 202.601 139.185 201.746 137.185C200.891 135.184 200.648 132.975 201.048 130.837L202.031 131.021L201.048 130.837C201.449 128.698 202.474 126.727 203.995 125.171C205.515 123.616 207.463 122.546 209.591 122.097C211.005 121.796 212.464 121.776 213.886 122.04C215.307 122.305 216.663 122.847 217.874 123.637C219.085 124.426 220.128 125.448 220.944 126.642C221.759 127.836 222.33 129.179 222.624 130.594ZM222.624 130.594C222.625 130.594 222.625 130.595 222.625 130.595L221.646 130.799L222.624 130.594Z" fill="#C3B6FF" stroke="#EEEEEE" stroke-width="2"/>
<path d="M206.65 130.642C206.781 129.267 207.449 127.89 208.629 127.183C209.808 126.477 211.812 126.745 212.971 127.495C215.09 128.867 216.79 134.765 215.991 136.913C215.749 136.951 214.922 137.117 214.678 137.16L214.094 136.092L214.334 137.221C213.946 137.291 213.556 137.365 213.163 137.444C211.847 137.707 210.48 137.449 209.351 136.725C208.221 136.001 207.415 134.867 207.104 133.562C206.806 132.313 206.599 131.184 206.65 130.642Z" fill="#2F2E41"/>
<path d="M211.947 133.982C213.487 133.654 214.47 132.141 214.142 130.601C213.815 129.062 212.302 128.079 210.762 128.406C209.223 128.733 208.24 130.247 208.567 131.786C208.894 133.326 210.408 134.309 211.947 133.982Z" fill="#9E616A"/>
<path d="M208.429 129.257L211.297 126.968C212.016 127.124 212.68 127.47 213.22 127.969C213.761 128.468 214.158 129.103 214.37 129.808L214.654 130.749L213.237 130.693L212.829 129.499L212.841 130.677L212.187 130.651L211.789 128.747L211.572 130.78L209.249 130.742L208.429 129.257Z" fill="#2F2E41"/>
<path d="M220.495 137.791C219.21 140.079 217.077 141.771 214.556 142.5C212.035 143.229 209.328 142.938 207.02 141.689L207.362 139.169C207.463 138.713 207.686 138.293 208.008 137.954C208.33 137.616 208.738 137.371 209.188 137.246L209.715 137.1L210.754 135.732C210.754 135.732 214.157 134.881 214.094 134.833L216.437 135.641L216.433 135.632L217.26 135.509C217.722 135.439 218.194 135.497 218.626 135.676C219.058 135.854 219.433 136.147 219.711 136.523L220.495 137.791Z" fill="url(#paint1_linear_2136_29685)"/>
<path d="M305.14 92.9302C311.182 92.2952 315.565 86.8825 314.93 80.8407C314.295 74.7988 308.883 70.4157 302.841 71.0508C296.799 71.6858 292.416 77.0985 293.051 83.1403C293.686 89.1822 299.098 93.5653 305.14 92.9302Z" fill="#C3B6FF" stroke="#EEEEEE" stroke-width="2"/>
<path d="M304.502 82.9625C306.293 82.7742 307.592 81.1697 307.404 79.3786C307.216 77.5876 305.611 76.2883 303.82 76.4765C302.029 76.6648 300.73 78.2693 300.918 80.0603C301.106 81.8514 302.711 83.1507 304.502 82.9625Z" fill="#FFB8B8"/>
<path d="M306.792 77.277C306.792 77.277 307.466 75.5741 305.593 75.6226C305.593 75.6226 303.859 74.3525 302.368 75.696C302.368 75.696 301.487 75.7886 301.111 76.8355C301.111 76.8355 300.391 76.6457 300.312 77.3645C300.312 77.3645 299.96 78.8852 300.605 80.1526C301.251 81.42 301.435 81.5491 301.435 81.5491C301.435 81.5491 300.907 79.9475 302.918 79.5878C304.929 79.228 306.655 77.763 306.994 79.3594C307.332 80.9558 307.441 80.2071 307.441 80.2071C307.441 80.2071 308.803 77.7332 306.792 77.277Z" fill="#2F2E41"/>
<path d="M312.109 87.823C310.593 89.9646 308.294 91.4238 305.711 91.8855C303.127 92.3473 300.466 91.7746 298.301 90.291L298.904 87.8212C299.052 87.3781 299.318 86.9838 299.674 86.6806C300.029 86.3773 300.46 86.1765 300.921 86.0996L301.46 86.0093L302.637 84.7572C302.637 84.7572 306.111 84.2663 306.053 84.2121L308.298 85.2605L308.295 85.2519L309.131 85.2155C309.598 85.1947 310.061 85.3014 310.472 85.5242C310.883 85.747 311.225 86.0774 311.462 86.48L312.109 87.823Z" fill="url(#paint2_linear_2136_29685)"/>
<path d="M347.658 112.097C356.932 113.565 365.64 107.239 367.108 97.9654C368.577 88.6921 362.25 79.984 352.977 78.5153C343.704 77.0465 334.996 83.3733 333.527 92.6466C332.058 101.92 338.385 110.628 347.658 112.097Z" fill="#C3B6FF" stroke="#EEEEEE" stroke-width="2"/>
<path d="M344.847 88.1032C344.446 89.2342 343.91 90.313 343.252 91.3166C339.53 96.7724 347.774 96.1075 350.611 96.5569C353.713 97.0482 356.422 99.1494 357.117 91.83C357.413 88.7035 355.492 85.8152 352.39 85.3239C349.74 84.9043 345.829 85.4919 344.847 88.1032Z" fill="#2F2E41"/>
<path d="M350.146 96.4819C352.666 96.8811 355.033 95.1614 355.433 92.6407C355.832 90.1201 354.112 87.7531 351.591 87.3539C349.071 86.9546 346.704 88.6744 346.304 91.195C345.905 93.7156 347.625 96.0827 350.146 96.4819Z" fill="#FFB6B6"/>
<path d="M348.507 86.7746C349.384 86.4137 350.342 86.2951 351.281 86.4311C352.219 86.5671 353.104 86.9527 353.842 87.5477C354.581 88.1426 355.146 88.9251 355.478 89.8132C355.811 90.7013 355.899 91.6624 355.733 92.5961C353.315 92.8117 350.801 92.8716 348.462 91.5877L348.103 90.0615L347.531 91.4413C346.727 91.6304 345.928 91.7716 345.261 91.0788C345.378 90.1401 345.74 89.2485 346.309 88.4932C346.879 87.7378 347.637 87.1452 348.507 86.7746Z" fill="#2F2E41"/>
<path d="M360.941 107.76C357.71 110.442 353.553 111.745 349.37 111.389C345.186 111.033 341.31 109.045 338.578 105.856L340.533 102.289C340.945 101.665 341.52 101.166 342.195 100.845C342.87 100.523 343.619 100.391 344.363 100.463L345.234 100.547L347.571 99.0994C347.571 99.0994 353.143 99.7791 353.076 99.6714L356.112 102.221L356.111 102.207L357.418 102.497C358.148 102.658 358.82 103.015 359.362 103.529C359.905 104.044 360.297 104.696 360.497 105.416L360.941 107.76Z" fill="url(#paint3_linear_2136_29685)"/>
<path d="M282.789 150.49C291.012 151.5 298.496 145.652 299.505 137.43C300.515 129.207 294.668 121.723 286.445 120.714C278.223 119.704 270.739 125.551 269.729 133.774C268.719 141.996 274.567 149.48 282.789 150.49Z" fill="#C3B6FF" stroke="#EEEEEE" stroke-width="2"/>
<path d="M284.022 137.276C286.472 137.577 288.702 135.835 289.002 133.385C289.303 130.935 287.561 128.706 285.111 128.405C282.662 128.104 280.432 129.846 280.131 132.296C279.83 134.745 281.572 136.975 284.022 137.276Z" fill="#FFB6B6"/>
<path d="M293.901 146.179C291.157 148.623 287.563 149.889 283.893 149.706C280.223 149.522 276.773 147.902 274.287 145.197L275.888 142.018C276.229 141.46 276.717 141.006 277.297 140.704C277.877 140.402 278.529 140.264 279.182 140.305L279.946 140.351L281.945 139.014C281.945 139.014 286.838 139.438 286.776 139.346L289.509 141.483L289.508 141.471L290.659 141.684C291.302 141.803 291.901 142.094 292.391 142.527C292.881 142.961 293.244 143.519 293.441 144.143L293.901 146.179Z" fill="url(#paint4_linear_2136_29685)"/>
<path d="M289.583 130.664C289.373 129.276 288.664 128.013 287.588 127.111C286.73 126.401 285.605 125.955 284.512 126.14C283.418 126.326 282.417 127.254 282.349 128.381C281.984 128.204 281.53 128.324 281.215 128.584C280.9 128.844 280.702 129.222 280.546 129.604C280.053 130.816 279.913 132.143 280.141 133.432L280.099 133.608C280.624 133.586 281.068 133.192 281.369 132.751C281.67 132.311 281.873 131.806 282.193 131.379C282.512 130.952 282.999 130.597 283.522 130.646L283.379 131.437C283.856 131.261 284.332 131.085 284.809 130.909C284.671 131.151 284.533 131.394 284.395 131.636C284.807 131.52 285.219 131.404 285.63 131.289C285.557 131.529 285.483 131.769 285.409 132.009C285.906 131.172 287.155 130.932 287.911 131.526C288.35 131.871 288.599 132.421 288.697 132.979C288.794 133.536 288.757 134.108 288.719 134.674C289.48 133.484 289.786 132.061 289.583 130.664Z" fill="#2F2E41"/>
<path d="M280.512 47.277C288.616 48.9994 296.581 43.8267 298.303 35.7235C300.026 27.6203 294.853 19.655 286.75 17.9326C278.646 16.2102 270.681 21.3829 268.959 29.4862C267.236 37.5894 272.409 45.5547 280.512 47.277Z" fill="#C3B6FF" stroke="#EEEEEE" stroke-width="2"/>
<path d="M280.963 26.6672C282.031 26.8942 283.08 26.2126 283.307 25.1448C283.534 24.077 282.853 23.0274 281.785 22.8005C280.717 22.5735 279.668 23.2551 279.441 24.3229C279.214 25.3907 279.895 26.4403 280.963 26.6672Z" fill="#2F2E41"/>
<path d="M282.494 34.6714C285.199 35.2464 287.858 33.5196 288.433 30.8146C289.008 28.1096 287.282 25.4506 284.577 24.8757C281.872 24.3007 279.213 26.0274 278.638 28.7325C278.063 31.4375 279.789 34.0964 282.494 34.6714Z" fill="#2F2E41"/>
<path d="M282.899 34.7562C285.098 35.2234 287.258 33.8203 287.725 31.6221C288.193 29.424 286.79 27.2633 284.591 26.7961C282.393 26.3288 280.233 27.732 279.765 29.9301C279.298 32.1283 280.701 34.289 282.899 34.7562Z" fill="#9E616A"/>
<path d="M287.311 27.2936C286.704 26.7202 285.954 26.3204 285.14 26.136C284.325 25.9517 283.476 25.9895 282.681 26.2456C281.886 26.5016 281.175 26.9665 280.621 27.5917C280.068 28.2168 279.692 28.9792 279.534 29.7992C281.454 30.7394 283.502 31.582 285.829 31.2646L286.606 30.1232L286.641 31.4381C287.243 31.8473 287.855 32.2155 288.621 31.8562C288.821 31.0476 288.805 30.2006 288.576 29.3999C288.346 28.5993 287.91 27.873 287.311 27.2936Z" fill="#2F2E41"/>
<path d="M280.689 19.1028C279.482 18.2056 277.744 18.1367 276.426 18.8613C275.109 19.5859 274.247 21.0378 274.152 22.5384C274.056 24.0693 274.687 25.5393 275.253 26.9648C275.82 28.3903 276.341 29.9314 276.021 31.4316C275.791 32.5121 275.142 33.4572 274.215 34.0595C273.289 34.6619 272.162 34.8723 271.081 34.6448C272.233 35.4604 273.439 36.2985 274.832 36.527C276.225 36.7554 277.859 36.176 278.374 34.8614C278.745 33.9142 278.466 32.8546 278.258 31.8589C277.919 30.2366 277.777 28.5793 277.835 26.9229C277.863 26.1324 277.946 25.3127 278.35 24.6328C278.663 24.1318 279.129 23.7448 279.679 23.5287C280.229 23.3127 280.834 23.2791 281.404 23.4329L281.947 23.1197C282.46 21.7061 281.895 19.9999 280.689 19.1028Z" fill="#2F2E41"/>
<path d="M291.987 43.9574C289.041 46.1526 285.349 47.1012 281.71 46.5983C278.07 46.0955 274.774 44.1815 272.534 41.2697L274.405 38.2419C274.794 37.7162 275.319 37.3063 275.923 37.0563C276.528 36.8062 277.189 36.7254 277.836 36.8224L278.593 36.9354L280.701 35.7774C280.701 35.7774 285.538 36.6264 285.485 36.5292L288.021 38.8965L288.021 38.8839L289.149 39.197C289.78 39.3712 290.351 39.7139 290.801 40.1882C291.252 40.6625 291.565 41.2505 291.706 41.8891L291.987 43.9574Z" fill="url(#paint5_linear_2136_29685)"/>
<path d="M338.83 51.1174C345.97 51.8679 352.367 46.6878 353.117 39.5475C353.868 32.4071 348.688 26.0103 341.548 25.2598C334.407 24.5093 328.01 29.6894 327.26 36.8297C326.509 43.9701 331.689 50.3669 338.83 51.1174Z" fill="#C3B6FF" stroke="#EEEEEE" stroke-width="2"/>
<path d="M340.243 38.6973C342.871 38.9735 345.226 37.0668 345.502 34.4385C345.778 31.8101 343.872 29.4555 341.243 29.1793C338.615 28.903 336.26 30.8098 335.984 33.4381C335.708 36.0664 337.615 38.421 340.243 38.6973Z" fill="#2F2E41"/>
<path d="M340.179 39.3227C342.527 39.5695 344.631 37.8661 344.877 35.5182C345.124 33.1702 343.421 31.0667 341.073 30.8199C338.725 30.5731 336.621 32.2765 336.374 34.6245C336.128 36.9725 337.831 39.0759 340.179 39.3227Z" fill="#FFB8B8"/>
<path d="M348.285 46.968C345.97 49.1033 342.909 50.2426 339.761 50.14C336.613 50.0375 333.632 48.7012 331.461 46.4198L332.785 43.6711C333.07 43.1881 333.481 42.7917 333.973 42.5244C334.466 42.2571 335.023 42.1289 335.583 42.1537L336.238 42.1822L337.932 41.0061C337.932 41.0061 342.131 41.2965 342.077 41.2184L344.451 43.0092L344.45 42.9985L345.44 43.1642C345.993 43.2563 346.51 43.4972 346.937 43.8612C347.363 44.2251 347.683 44.6983 347.86 45.23L348.285 46.968Z" fill="url(#paint6_linear_2136_29685)"/>
<path d="M345.268 34.0518C345.332 33.7375 345.379 33.4202 345.41 33.1011C345.493 32.4725 345.444 31.8332 345.264 31.225C345.036 30.5484 344.561 29.9825 343.935 29.6398C343.313 29.3096 342.587 29.2339 341.91 29.4288C341.363 28.997 340.743 28.6351 340.061 28.5267C339.379 28.4182 338.627 28.5964 338.146 29.112C338.036 29.2499 337.914 29.3778 337.782 29.4944C337.409 29.7732 336.898 29.6736 336.453 29.5618C336.637 29.7567 336.822 29.9515 337.006 30.1464C336.754 30.1846 336.502 30.2229 336.25 30.2612C336.518 30.4647 336.786 30.6683 337.054 30.8718C336.171 31.283 335.679 32.3312 335.675 33.3297C335.671 34.275 336.033 35.1779 336.493 35.9949C336.756 35.5631 336.767 35.0144 336.817 34.5022C336.832 34.3359 336.86 34.1711 336.899 34.0088C338.678 34.6379 340.555 35.119 342.561 34.6276L343.049 33.7188C343.103 33.7301 343.157 33.7411 343.21 33.7526L343.337 34.71C343.825 34.9719 344.316 35.2076 344.847 35.07C344.857 35.2168 344.857 35.3656 344.853 35.5083C344.915 35.3437 344.971 35.1772 345.023 35.0096C345.094 34.9805 345.163 34.946 345.229 34.9064C345.272 34.6236 345.285 34.3372 345.268 34.0518Z" fill="#2F2E41"/>
<path d="M347.223 146.132C348.302 144.243 348.798 142.078 348.646 139.908C348.552 138.465 348.172 137.055 347.53 135.759C346.887 134.463 345.994 133.307 344.902 132.358C343.81 131.408 342.541 130.685 341.167 130.229C339.795 129.773 338.346 129.593 336.904 129.7C334.734 129.852 332.658 130.644 330.939 131.976C329.219 133.308 327.932 135.12 327.242 137.183C326.551 139.246 326.488 141.468 327.061 143.567C327.633 145.666 328.815 147.548 330.457 148.975C332.098 150.402 334.127 151.311 336.285 151.585C338.443 151.86 340.634 151.488 342.581 150.518C344.528 149.547 346.144 148.02 347.223 146.132Z" fill="#C3B6FF" stroke="#EEEEEE" stroke-width="2"/>
<path d="M341.586 138.001L341.586 138.001L341.543 138.094C341.906 136.98 341.414 135.674 340.573 134.912C339.732 134.151 338.616 133.854 337.533 133.781C336.729 133.726 335.903 133.787 335.166 134.132C334.099 134.631 333.329 135.668 332.701 136.734C332.413 137.222 332.136 137.774 332.208 138.353C332.276 138.891 332.628 139.327 332.922 139.766C333.217 140.206 333.476 140.759 333.322 141.272C333.231 141.577 333.009 141.808 332.833 142.065C332.658 142.323 332.523 142.663 332.637 142.962C332.687 143.076 332.765 143.175 332.864 143.25C332.963 143.325 333.08 143.373 333.204 143.389C333.44 143.427 333.679 143.374 333.912 143.322L339.962 141.971C340.374 141.879 340.756 141.689 341.078 141.417C341.4 141.146 341.652 140.8 341.811 140.41C341.971 140.02 342.033 139.597 341.994 139.178C341.955 138.759 341.815 138.355 341.586 138.001Z" fill="#2F2E41"/>
<path d="M340.079 139.397C340.229 137.748 339.015 136.29 337.367 136.139C335.718 135.989 334.26 137.203 334.109 138.852C333.959 140.5 335.173 141.958 336.822 142.109C338.47 142.259 339.928 141.045 340.079 139.397Z" fill="#FFB9B9"/>
<path d="M345.623 146.736C344.033 148.823 341.685 150.201 339.087 150.573C336.489 150.944 333.849 150.279 331.737 148.721L332.426 146.273C332.59 145.836 332.869 145.451 333.235 145.16C333.601 144.869 334.039 144.684 334.502 144.623L335.044 144.552L336.264 143.341C336.264 143.341 339.752 142.972 339.696 142.916L341.904 144.042L341.901 144.033L342.738 144.026C343.205 144.022 343.664 144.144 344.067 144.381C344.47 144.618 344.8 144.96 345.023 145.371L345.623 146.736Z" fill="url(#paint7_linear_2136_29685)"/>
<path d="M339.735 136.151C339.63 135.748 339.2 135.59 338.837 135.525C337.784 135.333 336.703 135.349 335.656 135.572C334.893 135.736 334.121 136.034 333.603 136.675C333.188 137.213 332.978 137.882 333.011 138.561C333.016 138.968 333.135 139.366 333.354 139.709C333.579 140.036 333.94 140.259 334.293 140.225L334.338 140.348C335.824 140.033 337.153 139.002 337.935 137.556C337.811 138.156 337.52 138.709 337.095 139.151C338.08 138.674 338.914 137.934 339.503 137.012C339.664 136.763 339.816 136.457 339.735 136.151Z" fill="#2F2E41"/>
<path d="M255.437 112.906C264.734 111.599 271.212 103.003 269.906 93.7051C268.599 84.4076 260.003 77.9298 250.705 79.2365C241.408 80.5431 234.93 89.1395 236.237 98.437C237.543 107.734 246.14 114.212 255.437 112.906Z" fill="#C3B6FF" stroke="#EEEEEE" stroke-width="2"/>
<path d="M252.954 97.7634C255.608 97.3903 257.458 94.9358 257.085 92.2811C256.712 89.6264 254.257 87.7768 251.603 88.1499C248.948 88.523 247.098 90.9775 247.471 93.6322C247.845 96.2869 250.299 98.1365 252.954 97.7634Z" fill="#9E616A"/>
<path d="M266.224 104.89C263.918 108.4 260.325 110.861 256.219 111.744C252.114 112.626 247.826 111.859 244.282 109.608L245.108 105.625C245.321 104.908 245.724 104.263 246.275 103.758C246.827 103.253 247.505 102.908 248.238 102.759L249.095 102.585L250.906 100.517C250.906 100.517 256.433 99.538 256.337 99.4546L259.987 101.006L259.982 100.992L261.316 100.887C262.061 100.828 262.808 100.973 263.478 101.306C264.147 101.639 264.712 102.148 265.114 102.779L266.224 104.89Z" fill="url(#paint8_linear_2136_29685)"/>
<path d="M248.223 95.7928C248.21 95.7678 248.197 95.7425 248.184 95.7174C248.168 95.7363 248.153 95.7556 248.135 95.7737L248.223 95.7928Z" fill="#2F2E41"/>
<path d="M257.795 90.4376C257.702 89.9533 257.507 89.4943 257.224 89.0908C256.94 88.6873 256.574 88.3484 256.15 88.0966C255.839 87.9145 255.489 87.7729 255.26 87.4938C255.124 87.2926 255.003 87.0816 254.898 86.8625C254.406 86.0361 253.288 85.7171 252.364 85.9826C251.439 86.2482 250.712 86.9975 250.271 87.8527C249.982 87.761 249.673 87.754 249.38 87.8327C249.087 87.9113 248.822 88.0723 248.618 88.2965C248.414 88.5208 248.278 88.7989 248.227 89.0979C248.175 89.3969 248.211 89.7044 248.329 89.9838C247.785 89.6589 247.039 90.0848 246.811 90.6758C246.583 91.2669 246.726 91.9309 246.904 92.5388C247.226 93.6376 247.654 94.7022 248.184 95.7175C248.601 95.2318 248.464 94.4731 248.315 93.8365C248.161 93.1751 248.082 92.3521 248.621 91.9392C249.142 91.5403 249.879 91.7944 250.528 91.8881C251.041 91.9585 251.563 91.9168 252.059 91.7659C252.554 91.615 253.011 91.3586 253.397 91.0142C253.692 90.7485 253.942 90.4324 254.268 90.2063C254.593 89.9803 255.031 89.8563 255.388 90.0286C255.714 90.186 255.887 90.5406 256.037 90.8701C256.392 91.6512 256.746 92.4322 257.101 93.2132C257.406 92.8258 257.626 92.3782 257.746 91.8998C257.865 91.4214 257.882 90.923 257.795 90.4376Z" fill="#2F2E41"/>
</g>
<path d="M0 0H382H0ZM382 150C382 164.359 370.359 176 356 176H26C11.6406 176 0 164.359 0 150C0 157.732 8.9543 164 20 164H362C373.046 164 382 157.732 382 150ZM0 170V0V170ZM382 0V170V0Z" fill="#543ACC" mask="url(#path-1-inside-1_2136_29685)"/>
<defs>
<linearGradient id="paint0_linear_2136_29685" x1="382" y1="170" x2="36.0768" y2="-55.3738" gradientUnits="userSpaceOnUse">
<stop stop-color="#6949FF"/>
<stop offset="1" stop-color="#876DFF"/>
</linearGradient>
<linearGradient id="paint1_linear_2136_29685" x1="221.201" y1="141.114" x2="205.889" y2="136.717" gradientUnits="userSpaceOnUse">
<stop stop-color="#6949FF"/>
<stop offset="1" stop-color="#876DFF"/>
</linearGradient>
<linearGradient id="paint2_linear_2136_29685" x1="312.465" y1="91.2018" x2="297.696" y2="85.2279" gradientUnits="userSpaceOnUse">
<stop stop-color="#6949FF"/>
<stop offset="1" stop-color="#876DFF"/>
</linearGradient>
<linearGradient id="paint3_linear_2136_29685" x1="360.09" y1="113.129" x2="339.739" y2="97.7806" gradientUnits="userSpaceOnUse">
<stop stop-color="#6949FF"/>
<stop offset="1" stop-color="#876DFF"/>
</linearGradient>
<linearGradient id="paint4_linear_2136_29685" x1="293.321" y1="150.9" x2="275.056" y2="138.1" gradientUnits="userSpaceOnUse">
<stop stop-color="#6949FF"/>
<stop offset="1" stop-color="#876DFF"/>
</linearGradient>
<linearGradient id="paint5_linear_2136_29685" x1="290.998" y1="48.6099" x2="273.918" y2="34.2664" gradientUnits="userSpaceOnUse">
<stop stop-color="#6949FF"/>
<stop offset="1" stop-color="#876DFF"/>
</linearGradient>
<linearGradient id="paint6_linear_2136_29685" x1="347.859" y1="51.0226" x2="332.014" y2="40.3258" gradientUnits="userSpaceOnUse">
<stop stop-color="#6949FF"/>
<stop offset="1" stop-color="#876DFF"/>
</linearGradient>
<linearGradient id="paint7_linear_2136_29685" x1="345.86" y1="150.125" x2="331.309" y2="143.639" gradientUnits="userSpaceOnUse">
<stop stop-color="#6949FF"/>
<stop offset="1" stop-color="#876DFF"/>
</linearGradient>
<linearGradient id="paint8_linear_2136_29685" x1="266.981" y1="110.273" x2="243.031" y2="101.546" gradientUnits="userSpaceOnUse">
<stop stop-color="#6949FF"/>
<stop offset="1" stop-color="#876DFF"/>
</linearGradient>
<clipPath id="clip0_2136_29685">
<path d="M0 40C0 21.1438 0 11.7157 5.85786 5.85786C11.7157 0 21.1438 0 40 0H342C360.856 0 370.284 0 376.142 5.85786C382 11.7157 382 21.1438 382 40V130C382 148.856 382 158.284 376.142 164.142C370.284 170 360.856 170 342 170H40C21.1438 170 11.7157 170 5.85786 164.142C0 158.284 0 148.856 0 130V40Z" fill="white"/>
</clipPath>
</defs>
</svg>
