<svg width="28" height="28" viewBox="0 0 28 28" fill="none" xmlns="http://www.w3.org/2000/svg">
<path fill-rule="evenodd" clip-rule="evenodd" d="M10.413 19.1218H16.6969C17.1705 19.1218 17.5632 18.7252 17.5632 18.2468C17.5632 17.7685 17.1705 17.3835 16.6969 17.3835H10.413C9.93944 17.3835 9.5467 17.7685 9.5467 18.2468C9.5467 18.7252 9.93944 19.1218 10.413 19.1218ZM14.3173 11.5502H10.413C9.93944 11.5502 9.5467 11.9468 9.5467 12.4252C9.5467 12.9035 9.93944 13.2885 10.413 13.2885H14.3173C14.7909 13.2885 15.1837 12.9035 15.1837 12.4252C15.1837 11.9468 14.7909 11.5502 14.3173 11.5502ZM22.5608 10.53C22.8323 10.5269 23.1279 10.5235 23.3965 10.5235C23.6853 10.5235 23.9163 10.7568 23.9163 11.0485V20.4285C23.9163 23.3218 21.5946 25.6668 18.7299 25.6668H9.53515C6.53185 25.6668 4.08301 23.2052 4.08301 20.1718V7.59516C4.08301 4.70183 6.41634 2.3335 9.29258 2.3335H15.4609C15.7612 2.3335 15.9922 2.5785 15.9922 2.87016V6.62683C15.9922 8.76183 17.7365 10.5118 19.8503 10.5235C20.3441 10.5235 20.7794 10.5272 21.1603 10.5304C21.4567 10.5329 21.7201 10.5352 21.9526 10.5352C22.1171 10.5352 22.3302 10.5327 22.5608 10.53ZM22.8793 8.82716C21.9298 8.83066 20.8105 8.82716 20.0054 8.819C18.7278 8.819 17.6755 7.75616 17.6755 6.46583V3.3905C17.6755 2.88766 18.2796 2.638 18.625 3.00083C19.2508 3.65809 20.1112 4.56185 20.9673 5.46118C21.8193 6.35614 22.6671 7.24672 23.2755 7.88566C23.6128 8.23916 23.3656 8.826 22.8793 8.82716Z" fill="white"/>
</svg>
