<svg width="174" height="174" viewBox="0 0 174 174" fill="none" xmlns="http://www.w3.org/2000/svg">
<path d="M137.354 157.112C136.631 157.891 135.795 158.604 134.845 159.234C122.199 167.62 107.481 172.596 92.1338 173.513C70.9785 174.776 50.0941 168.239 33.4321 155.138C16.77 142.037 5.48619 123.282 1.71554 102.42C-2.05511 81.5582 1.949 60.0375 12.9702 41.9298C23.9915 23.822 41.2654 10.3833 61.5235 4.15639C81.7816 -2.07055 103.619 -0.653788 122.903 8.13861C142.187 16.931 157.581 32.4891 166.172 51.8693C172.404 65.9279 174.742 81.2904 173.101 96.378C172.065 105.893 162.128 110.951 153.008 108.045C143.891 105.139 139.175 95.2778 138.938 85.712C138.77 78.942 137.281 72.2141 134.492 65.9216C129.337 54.2935 120.101 44.9587 108.53 39.6832C96.9597 34.4078 83.8574 33.5577 71.7026 37.2939C59.5477 41.0301 49.1834 49.0933 42.5706 59.9579C35.9579 70.8225 33.5554 83.735 35.8178 96.252C38.0802 108.769 44.8505 120.022 54.8477 127.883C64.8449 135.743 77.3756 139.666 90.0688 138.908C96.868 138.502 103.461 136.768 109.5 133.863L57.2681 81.6132C70.8018 68.075 92.7442 68.075 106.278 81.6132L173.666 149.024C163.848 158.846 149.603 161.542 137.354 157.112Z" fill="url(#paint0_linear_201_5686)"/>
<defs>
<linearGradient id="paint0_linear_201_5686" x1="173.666" y1="173.667" x2="-32.5848" y2="113.866" gradientUnits="userSpaceOnUse">
<stop stop-color="#6949FF"/>
<stop offset="1" stop-color="#876DFF"/>
</linearGradient>
</defs>
</svg>
