<svg width="382" height="303" viewBox="0 0 382 303" fill="none" xmlns="http://www.w3.org/2000/svg">
<g clip-path="url(#clip0_2133_20123)">
<path d="M227.423 241.282L230.594 248.393C228.016 247.982 225.619 250.184 225.565 253.011C225.512 255.838 227.811 258.779 230.389 259.181C229.896 261.376 227.77 262.344 225.924 263.231C224.079 264.118 222.09 265.589 222.227 267.928C222.338 269.806 223.891 271.464 225.54 272.13C227.189 272.797 228.919 272.695 230.589 272.583C228.058 275.23 227.812 280.206 230.034 283.777C232.257 287.347 236.696 289.104 240.019 287.73C237.671 290.651 238.181 296.001 241.096 299.016C244.034 302.055 248.292 302.349 252.014 302.029C261.493 301.228 270.525 297.648 277.98 291.739C280.826 289.478 283.484 286.818 285.107 283.349C286.73 279.881 287.209 275.489 285.697 271.541C286.104 276.486 291.054 280.392 295.506 280.61C299.959 280.829 303.847 278.321 307.15 275.461C311.543 271.658 315.611 266.327 315.008 259.749C314.71 256.493 313.287 253.361 311.892 250.327L309.188 244.446C308.096 242.072 306.979 239.657 305.336 237.665C303.693 235.672 301.412 234.13 299.129 234.144C299.651 231.76 300.175 229.287 299.738 226.754C299.301 224.22 297.626 221.597 295.348 221.004C292.45 220.249 289.993 222.924 287.078 222.672C284.273 222.429 281.955 219.614 279.231 218.499C278.109 218.013 276.871 217.866 275.667 218.074C274.463 218.283 273.346 218.837 272.452 219.671C270.725 221.357 270.006 224.205 270.625 226.9C271.168 229.26 272.613 231.342 273.489 233.619C274.366 235.896 274.502 238.823 272.818 240.066C270.786 241.567 267.693 239.525 266.106 237.055C264.518 234.585 263.607 231.594 261.599 229.517C259.23 227.065 255.521 226.491 253.082 228.197C250.642 229.904 249.709 233.726 250.939 236.975C251.945 239.632 254.248 242.319 253.449 244.821C252.605 247.464 248.91 247.13 246.682 245.261C244.453 243.393 242.973 240.578 240.772 238.668C238.536 236.728 235.616 235.878 233.053 236.42C231.753 236.722 230.55 237.346 229.554 238.236C228.559 239.125 227.804 240.251 227.358 241.509" fill="#E6E6E6"/>
<path d="M278.765 221.301L272.185 224.358C271.196 224.846 270.074 224.997 268.991 224.788C268.036 224.562 267.391 223.978 267.221 223.185L265.69 216.035C265.401 214.686 266.518 213.09 268.346 212.24L271.98 210.552C273.808 209.703 275.748 209.878 276.593 210.969L281.07 216.751C281.567 217.392 281.597 218.262 281.153 219.137C280.615 220.1 279.776 220.86 278.765 221.301Z" fill="#3F3D56"/>
<path d="M74.7436 89.1399C80.9293 72.2099 90.5824 56.7582 103.085 43.7743C113.692 32.763 130.2 33.2205 130.2 33.2205L130.295 33.1035C134.268 28.204 139.599 24.5868 145.62 22.7059C151.642 20.825 158.084 20.764 164.14 22.5307C165.714 22.9823 166.924 23.1826 167.5 22.9814C177.998 19.3073 177.505 11.0147 186.562 4.33413C202.42 -7.36307 255.022 6.03584 262.439 27.5601C268.451 45.005 295.285 53.4604 305.31 66.8043C306.878 68.8908 308.416 71.0015 309.925 73.1363C310.632 74.1281 311.331 75.1274 312.023 76.1342C319.126 86.4204 325.498 97.1925 331.092 108.371C334.76 115.675 337.949 123.21 340.637 130.928C351.092 161.493 347.517 184.265 318.688 178.639C315.275 177.971 311.945 177.374 308.696 176.847C303.992 176.079 299.452 175.448 295.076 174.954C289.183 174.284 283.576 173.845 278.257 173.637C276.468 173.565 274.712 173.517 272.989 173.492C247.512 173.139 228.613 177.934 214.216 185.377C211.776 186.636 209.463 187.968 207.278 189.372C203.941 191.505 200.754 193.866 197.741 196.437C193.571 200.015 189.726 203.955 186.25 208.211L186.06 208.444C169.22 229.042 163.679 251.844 151.965 255.859C101.893 273.025 70.2252 210.8 66.9775 149.93C66.8135 146.863 66.7229 143.804 66.7058 140.755C66.6956 139.392 66.7023 138.032 66.7259 136.676C66.7773 133.139 66.9332 129.624 67.1944 126.152C67.2919 124.824 67.405 123.504 67.5337 122.19C67.6756 120.774 67.8299 119.366 68.0082 117.967C69.282 107.711 71.5104 97.9526 74.7436 89.1399Z" fill="url(#paint0_linear_2133_20123)"/>
<path d="M229.941 122.63C225.942 124.491 225.876 132.83 227.13 135.532L229.402 140.423L243.887 133.693L241.614 128.803C240.358 126.102 233.942 120.774 229.941 122.63Z" fill="#3F3D56"/>
<path d="M191.017 192.847C190.762 192.847 190.511 192.785 190.285 192.667C190.059 192.55 189.865 192.379 189.719 192.17C189.573 191.961 189.479 191.72 189.446 191.468C189.413 191.215 189.441 190.958 189.529 190.719C189.6 190.523 189.709 190.343 189.849 190.19C189.99 190.037 190.16 189.913 190.349 189.826L265.151 155.072C265.34 154.985 265.544 154.935 265.751 154.926C265.959 154.917 266.167 154.95 266.362 155.021C266.557 155.092 266.737 155.201 266.89 155.342C267.043 155.483 267.167 155.652 267.254 155.841C267.431 156.222 267.449 156.657 267.305 157.052C267.161 157.446 266.866 157.767 266.486 157.944H266.485L191.683 192.698C191.475 192.796 191.247 192.847 191.017 192.847Z" fill="#3F3D56"/>
<path d="M249.529 136.813L228.147 146.747L261.688 218.938L283.07 209.004L249.529 136.813Z" fill="#E6E6E6"/>
<path d="M169.263 45.9363C165.264 47.798 165.198 56.137 166.452 58.839L168.724 63.7297L183.209 57L180.936 52.1093C179.68 49.4084 173.265 44.0808 169.263 45.9363Z" fill="#3F3D56"/>
<path d="M258.861 229.6L252.282 232.657C251.293 233.145 250.171 233.297 249.088 233.088C248.133 232.862 247.487 232.278 247.318 231.485L245.787 224.334C245.497 222.985 246.615 221.389 248.443 220.54L252.076 218.851C253.905 218.002 255.845 218.178 256.689 219.268L261.167 225.05C261.663 225.691 261.694 226.561 261.25 227.437C260.711 228.399 259.872 229.159 258.861 229.6Z" fill="#3F3D56"/>
<path d="M238.632 239.636L232.052 242.693C231.063 243.181 229.941 243.333 228.858 243.124C227.903 242.898 227.258 242.314 227.088 241.521L225.557 234.37C225.268 233.021 226.385 231.425 228.213 230.576L231.847 228.888C233.675 228.038 235.615 228.214 236.46 229.305L240.937 235.086C241.434 235.727 241.464 236.597 241.021 237.473C240.482 238.435 239.643 239.195 238.632 239.636Z" fill="#3F3D56"/>
<path d="M194.557 72.3987L173.175 82.333L240.974 228.259L262.356 218.324L194.557 72.3987Z" fill="#E6E6E6"/>
<path d="M216.743 147.623L214.344 142.344L215.725 141.707L218.117 146.97L252.753 223.765L251.373 224.406" fill="#3F3D56"/>
<path d="M243.804 143.235L241.404 137.956L242.785 137.319L245.177 142.581L279.813 219.377L278.433 220.018" fill="#3F3D56"/>
<path d="M204.649 84.0771L175.677 97.5377C173.833 94.6681 168.273 79.9629 169.521 75.5999L168.584 71.4392L188.588 62.145L191.266 65.4388C195.24 66.6584 202.978 80.4706 204.649 84.0771Z" fill="#E6E6E6"/>
<path d="M189.424 62.3228L168.781 71.9139C168.019 72.2679 167.208 72.1378 166.969 71.6232C166.934 71.549 166.913 71.4695 166.906 71.3881L165.837 59.9905C165.792 59.5025 166.209 58.9494 166.847 58.653L180.537 52.2925C181.175 51.9961 181.867 52.0337 182.211 52.3834L190.232 60.5505C190.642 60.9682 190.42 61.6832 189.734 62.1475C189.636 62.2141 189.532 62.2728 189.424 62.3228Z" fill="#E6E6E6"/>
<path d="M205.615 151.619C205.392 151.619 205.169 151.593 204.952 151.541C204.646 151.477 204.358 151.344 204.111 151.153C203.864 150.961 203.664 150.715 203.527 150.434L190.906 123.27C190.384 122.146 191.085 120.708 192.469 120.064L210.95 111.478C212.334 110.835 213.885 111.227 214.408 112.351L227.028 139.515C227.155 139.801 227.214 140.113 227.201 140.425C227.188 140.737 227.104 141.043 226.955 141.318C226.631 141.94 226.106 142.435 225.465 142.721L206.985 151.307C206.557 151.509 206.089 151.616 205.615 151.619Z" fill="#3F3D56"/>
<path d="M208.143 155.731L186.761 165.665L220.302 237.856L241.684 227.922L208.143 155.731Z" fill="#E6E6E6"/>
<path d="M181.8 63.5137L175.53 66.427C174.32 66.9892 172.688 66.0524 171.891 64.339C171.095 62.6257 171.432 60.774 172.642 60.2118L178.913 57.2985C180.123 56.7363 181.755 57.6731 182.551 59.3864C183.347 61.0998 183.01 62.9515 181.8 63.5137Z" fill="#3F3D56"/>
<path d="M188.972 141.354C184.973 143.216 184.907 151.555 186.161 154.257L188.433 159.148L202.918 152.418L200.645 147.527C199.389 144.826 192.974 139.499 188.972 141.354Z" fill="#3F3D56"/>
<path d="M122.546 124.708C121.134 125.649 119.688 123.41 121.128 122.511C122.54 121.57 123.986 123.809 122.546 124.708Z" fill="#E6E6E6"/>
<path d="M269.551 92.5282C268.139 93.4692 266.693 91.2296 268.133 90.3304C269.545 89.3894 270.99 91.629 269.551 92.5282Z" fill="#E6E6E6"/>
<path d="M169.354 118.126C167.942 119.067 166.496 116.828 167.936 115.929C169.348 114.988 170.793 117.227 169.354 118.126Z" fill="#E6E6E6"/>
<path d="M122.546 205.89C121.134 206.831 119.688 204.592 121.128 203.693C122.54 202.752 123.986 204.991 122.546 205.89Z" fill="#E6E6E6"/>
<path d="M194.586 22.683C193.174 23.6239 191.729 21.3843 193.168 20.4851C194.58 19.5442 196.026 21.7838 194.586 22.683Z" fill="#E6E6E6"/>
<path d="M125.106 65.8334C123.693 66.7743 122.248 64.5347 123.687 63.6355C125.1 62.6946 126.545 64.9342 125.106 65.8334Z" fill="#E6E6E6"/>
<path d="M225.039 53.4631L224.141 53.266L224.338 52.3671L223.739 52.2358L223.541 53.1347L222.643 52.938L222.512 53.5369L223.41 53.734L223.213 54.6325L223.812 54.7638L224.01 53.865L224.908 54.0621L225.039 53.4631Z" fill="#E6E6E6"/>
<path d="M78.7301 128.347L77.8316 128.15L78.0284 127.251L77.4294 127.12L77.2323 128.019L76.3334 127.822L76.2021 128.421L77.101 128.618L76.9043 129.517L77.5033 129.648L77.7004 128.749L78.5988 128.946L78.7301 128.347Z" fill="#E6E6E6"/>
<path d="M262.993 166.546C262.246 166.892 261.391 166.928 260.617 166.645C259.843 166.362 259.213 165.783 258.865 165.036L255.167 157.077C254.821 156.33 254.785 155.475 255.069 154.702C255.352 153.928 255.931 153.299 256.678 152.952C257.425 152.605 258.279 152.569 259.053 152.851C259.826 153.133 260.457 153.711 260.805 154.458L264.503 162.417C264.849 163.165 264.884 164.019 264.602 164.793C264.319 165.567 263.74 166.197 262.993 166.546Z" fill="#3F3D56"/>
<path d="M200.096 195.8C199.348 196.147 198.493 196.182 197.719 195.9C196.945 195.617 196.315 195.038 195.967 194.291L192.269 186.332C191.923 185.585 191.888 184.73 192.171 183.957C192.454 183.183 193.033 182.554 193.78 182.207C194.527 181.86 195.381 181.823 196.155 182.106C196.929 182.388 197.559 182.966 197.907 183.713L201.605 191.672C201.951 192.42 201.987 193.274 201.704 194.048C201.421 194.822 200.843 195.452 200.096 195.8Z" fill="#3F3D56"/>
<path d="M257.297 149.156L232.502 160.676C230.923 158.22 226.164 145.634 227.233 141.9L227.757 137.723L242.563 130.459L245.843 133.204C250.465 131.641 257.26 143.095 257.297 149.156Z" fill="#E6E6E6"/>
<path d="M245.785 148.357L239.514 151.27C238.305 151.833 236.463 150.447 235.411 148.181C234.358 145.916 234.487 143.615 235.697 143.053L241.967 140.14C243.177 139.578 245.018 140.963 246.071 143.229C247.123 145.494 246.995 147.795 245.785 148.357Z" fill="#3F3D56"/>
<path d="M192.607 163.348L190.208 158.068L191.589 157.431L193.981 162.694L228.617 239.49L227.237 240.131" fill="#3F3D56"/>
<path d="M216.328 167.88L191.532 179.4C187.874 177.511 182.284 165.153 186.263 160.624L186.788 156.447L201.593 149.184L204.874 151.928C208.275 152.972 214.898 164.793 216.328 167.88Z" fill="#E6E6E6"/>
<path d="M204.306 165.983L198.035 168.896C196.825 169.458 195.099 168.319 194.187 166.356C193.275 164.394 193.518 162.339 194.728 161.777L200.998 158.864C202.208 158.302 203.935 159.441 204.847 161.404C205.758 163.366 205.516 165.421 204.306 165.983Z" fill="#3F3D56"/>
<path d="M78.6381 112.574C99.4402 112.574 116.304 95.7107 116.304 74.9086C116.304 54.1066 99.4402 37.2432 78.6381 37.2432C57.8361 37.2432 40.9727 54.1066 40.9727 74.9086C40.9727 95.7107 57.8361 112.574 78.6381 112.574Z" fill="#FF6584"/>
<path opacity="0.3" d="M233.072 114.139L255.961 47.2886L230.827 113.339C230.703 113.495 230.618 113.68 230.579 113.876C230.54 114.072 230.548 114.275 230.603 114.467C230.658 114.659 230.759 114.836 230.895 114.982C231.032 115.128 231.202 115.239 231.391 115.306C231.579 115.373 231.781 115.395 231.979 115.368C232.177 115.342 232.367 115.269 232.531 115.154C232.695 115.04 232.83 114.889 232.924 114.712C233.018 114.535 233.069 114.339 233.072 114.139H233.072Z" fill="#F0F0F0"/>
<path d="M291.418 74.2916C286.938 75.7808 281.97 77.2436 276.516 78.6801C248.305 86.1075 210.492 91.9012 170.042 94.9943C129.591 98.0873 91.3364 98.1097 62.3244 95.058C48.1918 93.5712 37.0136 91.4329 29.1007 88.702C20.7231 85.8112 16.3211 82.3275 16.0167 78.3482C15.424 70.5958 30.7218 63.7726 43.6595 59.4138L44.0099 60.4534C26.243 66.4391 16.6901 72.7647 17.1107 78.2646C17.6462 85.2696 34.1678 90.9927 62.4392 93.9669C91.3874 97.012 129.572 96.9886 169.958 93.9006C210.344 90.8123 248.088 85.03 276.237 77.6191C303.727 70.382 319.187 62.2132 318.651 55.208C318.206 49.3919 306.742 44.4165 286.369 41.1978L286.541 40.1143C301.343 42.4531 319.12 46.9556 319.745 55.1244C320.049 59.1037 316.228 63.216 308.387 67.347C303.918 69.7017 298.239 72.0249 291.418 74.2916Z" fill="#3F3D56"/>
<path d="M302.486 141.095C304.647 141.095 306.4 139.343 306.4 137.181C306.4 135.02 304.647 133.268 302.486 133.268C300.324 133.268 298.572 135.02 298.572 137.181C298.572 139.343 300.324 141.095 302.486 141.095Z" fill="#FF6584"/>
<path d="M327.352 247.143C329.514 247.143 331.266 245.391 331.266 243.23C331.266 241.068 329.514 239.316 327.352 239.316C325.191 239.316 323.438 241.068 323.438 243.23C323.438 245.391 325.191 247.143 327.352 247.143Z" fill="#F2F2F2"/>
<path d="M193.877 270.973C198.092 270.973 201.508 267.556 201.508 263.342C201.508 259.128 198.092 255.712 193.877 255.712C189.663 255.712 186.247 259.128 186.247 263.342C186.247 267.556 189.663 270.973 193.877 270.973Z" fill="#F2F2F2"/>
<path d="M135.734 169.984C137.895 169.984 139.648 168.232 139.648 166.07C139.648 163.909 137.895 162.157 135.734 162.157C133.573 162.157 131.82 163.909 131.82 166.07C131.82 168.232 133.573 169.984 135.734 169.984Z" fill="#3F3D56"/>
<path d="M267.308 175.078L284.193 179.449L294.55 199.791L277.041 200.478L267.308 175.078Z" fill="#E6E6E6"/>
<path d="M228.333 145.752L237.627 155.051L261.23 206.084L256.885 209.838L228.333 145.752Z" fill="#CCCCCC"/>
<path d="M208.125 154.181L208.854 167.308L231.133 218.933L236.829 218.199L208.125 154.181Z" fill="#CCCCCC"/>
<path d="M207.517 207.21L198.423 222.094L205.127 243.914L218.187 232.232L207.517 207.21Z" fill="#E6E6E6"/>
<path d="M287.851 216.356C283.129 216.356 277.954 216.177 272.325 215.82C243.212 213.972 205.501 207.544 166.139 197.722C126.778 187.9 90.4683 175.856 63.8995 163.81C50.957 157.942 41.0237 152.388 34.3758 147.301C27.3375 141.915 24.2588 137.221 25.225 133.349C27.1075 125.805 43.7765 124.155 57.4286 124.099L57.4332 125.196C38.6853 125.273 27.625 128.263 26.2896 133.614C24.5884 140.431 38.4619 151.072 64.3525 162.811C90.8629 174.831 127.106 186.851 166.405 196.658C205.704 206.464 243.345 212.881 272.395 214.725C300.764 216.527 318.011 213.651 319.712 206.835C321.125 201.175 311.814 192.838 293.497 183.358L294.001 182.384C307.311 189.272 322.76 199.151 320.777 207.1C319.811 210.973 314.887 213.67 306.144 215.117C301.16 215.942 295.038 216.356 287.851 216.356Z" fill="#3F3D56"/>
</g>
<defs>
<linearGradient id="paint0_linear_2133_20123" x1="346" y1="258.754" x2="17.8606" y2="156.059" gradientUnits="userSpaceOnUse">
<stop stop-color="#6949FF"/>
<stop offset="1" stop-color="#876DFF"/>
</linearGradient>
<clipPath id="clip0_2133_20123">
<rect width="330" height="302.131" fill="white" transform="translate(16)"/>
</clipPath>
</defs>
</svg>
