<svg width="382" height="300" viewBox="0 0 382 300" fill="none" xmlns="http://www.w3.org/2000/svg">
<g clip-path="url(#clip0_2133_20180)">
<path d="M366 162.424C366 162.67 365.801 162.869 365.555 162.869H16V161.979H365.555C365.801 161.979 366 162.178 366 162.424Z" fill="#E6E6E6"/>
<path d="M130.936 54.2496C138.231 54.2496 144.146 48.3353 144.146 41.0396C144.146 33.7439 138.231 27.8296 130.936 27.8296C123.64 27.8296 117.726 33.7439 117.726 41.0396C117.726 48.3353 123.64 54.2496 130.936 54.2496Z" fill="#FFB6B6"/>
<path d="M137.936 57.0371L120.548 62.0051L118.064 67.594L112.475 94.2968V136.525C112.475 136.525 105.644 151.428 109.37 164.469C113.353 178.409 127.379 161.956 137.936 163.834C148.493 165.711 165.259 167.574 165.259 167.574L155.324 122.242L152.84 66.973L137.936 57.0371H137.936Z" fill="#E6E6E6"/>
<path d="M134.655 45.3656L131.969 44.0227C131.969 44.0227 131.297 37.9799 129.955 36.637C128.612 35.2941 128.612 34.6227 128.612 34.6227L130.626 31.937C130.626 31.937 120.555 37.3084 118.54 33.9513C116.526 30.5941 119.212 29.2513 119.212 29.2513L115.854 26.5656C115.854 26.5656 119.883 29.2513 120.555 27.237C121.226 25.2227 125.255 23.856 125.255 23.856C125.255 23.856 134.052 25.8465 133.346 23.856C132.64 21.8655 135.326 23.8798 135.997 24.5513C136.669 25.2227 142.712 31.937 143.383 31.2656C144.055 30.5941 147.412 32.6084 146.74 33.2799C146.069 33.9513 146.069 34.6227 146.74 35.2941C147.412 35.9656 151.44 43.3513 148.083 46.037C144.726 48.7227 140.026 52.0799 140.697 54.7656C141.369 57.4513 140.697 46.037 134.655 45.3656L134.655 45.3656Z" fill="#2F2E41"/>
<path d="M69.5356 78.6247C66.145 75.702 64.9048 71.5834 66.7652 69.4259C68.6256 67.2685 72.8816 67.8893 76.273 70.8136C77.6437 71.9631 78.7192 73.4242 79.4095 75.0746L93.6189 87.6399L87.5803 94.1823L74.2134 81.1005C72.4788 80.6607 70.8747 79.8117 69.5356 78.6247L69.5356 78.6247Z" fill="#FFB6B6"/>
<path d="M118.213 67.8074L127.572 66.9565L135.781 106.104C137.345 113.564 132.455 120.846 124.959 122.223L118.213 123.461L75.2148 85.6027L81.4968 75.1305L113.206 95.021L118.213 67.8074V67.8074Z" fill="#E6E6E6"/>
<path d="M97.3171 241.902C97.3171 241.902 89.8933 255.689 90.4236 255.159C90.9539 254.629 99.9685 257.81 99.9685 257.81L105.271 244.023L97.3171 241.902Z" fill="#FFB6B6"/>
<path d="M86.36 145.396C86.36 145.396 82.5598 160.586 82.9432 159.942C83.3266 159.297 92.847 160.161 92.847 160.161L94.5915 145.493L86.36 145.396H86.36Z" fill="#FFB6B6"/>
<path d="M152.466 142.841C135.689 145.198 120.535 143.143 108.188 133.462C108.188 133.462 99.1736 163.687 115.612 166.869C132.05 170.051 150.345 164.582 152.466 159.279C154.587 153.977 152.466 142.841 152.466 142.841Z" fill="#2F2E41"/>
<path d="M121.179 152.386L102.885 195.504L94.4004 245.349L105.536 248.001L125.455 202.132L152.465 158.219L121.179 152.386Z" fill="#2F2E41"/>
<path d="M118.793 140.09C118.793 140.09 114.551 107.214 106.597 105.092C102.719 104.058 99.0936 104.159 96.3959 104.533C93.6769 104.91 91.5093 106.988 91.0339 109.691L83.8057 150.795H94.027L97.3171 139.66L106.067 154.938L118.793 140.09V140.09Z" fill="#2F2E41"/>
<path d="M92.8099 155.999L82.7034 154.938L81.1439 160.771C81.1439 160.771 64.7055 175.619 73.1899 176.679C81.6742 177.74 89.6283 171.907 89.6283 171.907L101.299 165.212C101.299 165.212 96.7869 153.182 93.6053 153.182C90.4237 153.182 92.8099 155.999 92.8099 155.999Z" fill="#2F2E41"/>
<path d="M98.1126 255.424L88.0062 254.364L86.4467 260.197C86.4467 260.197 70.0083 275.045 78.4926 276.105C86.9769 277.166 94.931 271.333 94.931 271.333L106.602 264.637C106.602 264.637 105.802 252.077 102.62 252.077C99.4383 252.077 98.1126 255.424 98.1126 255.424Z" fill="#2F2E41"/>
<path d="M149.284 175.15C148.066 179.329 144.921 182.088 142.262 181.312C139.602 180.536 138.435 176.52 139.654 172.339C140.119 170.662 140.978 169.121 142.16 167.845L147.546 150.202L155.772 152.906L149.588 170.012C149.898 171.724 149.794 173.486 149.284 175.15Z" fill="#FFB6B6"/>
<path d="M154.977 67.05L150.688 65.8403V65.8403C146.644 73.8869 144.905 82.8955 145.664 91.8691L147.78 116.909L140.796 160.92L154.485 164.462L165.273 109.229L154.977 67.05V67.05Z" fill="#E6E6E6"/>
<path d="M71.4812 135.861C71.2934 135.286 69.8699 135.539 69.7332 135.025C69.597 134.513 70.963 134.083 72.0106 132.64C72.1996 132.379 73.3901 130.739 72.9335 130.049C72.068 128.741 66.0462 131.998 64.6008 130.171C64.2836 129.769 64.1531 129.081 63.208 127.799C62.8321 127.289 62.5909 127.043 62.3027 127.05C61.8938 127.061 61.7475 127.572 61.1048 128.499C60.141 129.889 59.7932 129.714 59.1583 130.853C58.6869 131.698 58.6311 132.238 58.2912 132.27C57.8102 132.315 57.6114 131.263 57.0237 131.222C56.424 131.18 55.8238 132.22 55.5263 133.032C54.968 134.557 55.3137 135.722 55.3904 136.884C55.4737 138.146 55.2781 139.993 53.9068 142.364L40.9727 162.972C43.7504 158.771 51.6353 147.315 54.8122 143.113C55.7293 141.9 56.7148 140.682 58.2317 140.453C59.6921 140.232 61.469 140.955 63.9493 140.913C64.2389 140.908 65.0451 140.884 65.2412 140.457C65.4033 140.103 65.0008 139.796 65.1472 139.464C65.3436 139.019 66.2272 139.21 67.4315 138.914C68.2806 138.706 68.8575 138.361 69.3536 138.065C69.5032 137.975 71.7313 136.626 71.4813 135.861H71.4812L71.4812 135.861Z" fill="#F2F2F2"/>
<path d="M37.6042 140.672C37.2679 140.598 36.9814 141.37 36.6897 141.289C36.399 141.208 36.5823 140.413 36.1761 139.483C36.1029 139.315 35.6413 138.257 35.1709 138.282C34.2793 138.33 34.1405 142.225 32.8263 142.407C32.5379 142.447 32.1622 142.312 31.2606 142.406C30.9019 142.444 30.7115 142.491 30.6319 142.635C30.519 142.838 30.7278 143.058 30.9972 143.641C31.4012 144.515 31.2152 144.635 31.5908 145.275C31.8697 145.75 32.1186 145.934 32.0362 146.11C31.9195 146.359 31.3457 146.153 31.1561 146.429C30.9626 146.712 31.2998 147.306 31.6127 147.687C32.1999 148.4 32.8716 148.567 33.4637 148.864C34.1071 149.188 34.9575 149.817 35.7256 151.174L42.1079 163.468C40.8475 160.893 37.5 153.717 36.3543 150.946C36.0235 150.146 35.7101 149.31 36.0353 148.5C36.3484 147.719 37.2157 147.056 37.9107 145.826C37.9919 145.683 38.2127 145.28 38.0596 145.061C37.933 144.879 37.6661 144.988 37.5454 144.82C37.3835 144.595 37.7322 144.217 37.9345 143.54C38.0771 143.064 38.0744 142.681 38.0721 142.352C38.0714 142.253 38.0519 140.77 37.6042 140.672V140.672L37.6042 140.672Z" fill="#F2F2F2"/>
<path d="M43.9717 143.671L44.1723 141.819L44.2953 141.703C44.8646 141.165 45.2207 140.595 45.3543 140.008C45.3756 139.915 45.392 139.82 45.4089 139.724C45.4755 139.343 45.5582 138.87 45.9243 138.378C46.1292 138.104 46.6713 137.485 47.2303 137.701C47.3812 137.758 47.483 137.856 47.5538 137.959C47.5715 137.941 47.5897 137.924 47.6092 137.904C47.8507 137.669 48.0196 137.583 48.1823 137.501C48.3074 137.437 48.4365 137.371 48.655 137.197C48.7508 137.12 48.8276 137.051 48.8923 136.993C49.0884 136.818 49.3393 136.613 49.683 136.694C50.0473 136.794 50.1722 137.141 50.2551 137.371C50.4031 137.782 50.4487 138.064 50.4788 138.251C50.4897 138.319 50.5023 138.396 50.5118 138.421C50.5916 138.622 51.5926 138.674 51.9692 138.696C52.8158 138.742 53.5484 138.782 53.7246 139.361C53.851 139.776 53.5875 140.229 52.9189 140.742C52.7107 140.901 52.5024 141.011 52.321 141.094C52.4326 141.199 52.5215 141.343 52.527 141.538C52.5392 142.001 52.0648 142.356 51.117 142.595C50.8815 142.655 50.5647 142.734 50.1501 142.714C49.9549 142.705 49.7839 142.675 49.6381 142.647C49.6163 142.73 49.5765 142.816 49.5046 142.898C49.2937 143.14 48.953 143.201 48.4906 143.065C47.98 142.923 47.5767 142.729 47.2207 142.559C46.9099 142.411 46.6418 142.285 46.4169 142.25C45.9985 142.191 45.6084 142.45 45.1415 142.793L43.9717 143.671H43.9717L43.9717 143.671Z" fill="#F2F2F2"/>
<path d="M47.3097 133.122L45.4673 133.398L45.3235 133.308C44.6587 132.894 44.017 132.694 43.4157 132.714C43.3201 132.717 43.2247 132.725 43.1275 132.733C42.7422 132.765 42.2633 132.805 41.6948 132.576C41.3778 132.447 40.6414 132.08 40.7088 131.484C40.7252 131.324 40.794 131.2 40.8764 131.106C40.8544 131.093 40.8325 131.08 40.8087 131.066C40.5205 130.892 40.3945 130.75 40.2731 130.614C40.1798 130.509 40.0836 130.401 39.8592 130.234C39.7607 130.161 39.6745 130.104 39.6021 130.056C39.3829 129.911 39.1209 129.72 39.1123 129.367C39.1162 128.989 39.4207 128.78 39.6222 128.642C39.9816 128.395 40.243 128.279 40.4164 128.202C40.4798 128.174 40.5511 128.143 40.5729 128.127C40.7471 127.999 40.5435 127.018 40.4689 126.648C40.2986 125.817 40.1512 125.099 40.6673 124.781C41.0364 124.554 41.5408 124.694 42.2067 125.21C42.4139 125.371 42.5733 125.545 42.6989 125.699C42.7727 125.565 42.8889 125.442 43.0765 125.387C43.5208 125.258 43.9845 125.627 44.4563 126.483C44.5742 126.696 44.7315 126.982 44.8172 127.388C44.8574 127.579 44.8719 127.752 44.8818 127.901C44.9677 127.901 45.0614 127.917 45.1589 127.966C45.446 128.109 45.5918 128.423 45.5774 128.905C45.5693 129.434 45.4845 129.874 45.4102 130.261C45.3458 130.599 45.2913 130.891 45.3149 131.117C45.3644 131.537 45.7132 131.849 46.1642 132.213L47.3098 133.122H47.3098L47.3097 133.122Z" fill="#F2F2F2"/>
<path d="M47.5586 127.589L47.7592 125.736L47.8822 125.62C48.4515 125.082 48.8076 124.512 48.9412 123.925C48.9625 123.832 48.9789 123.738 48.9958 123.642C49.0624 123.261 49.1451 122.787 49.5112 122.296C49.7161 122.022 50.2582 121.403 50.8172 121.619C50.9681 121.675 51.0699 121.773 51.1407 121.877C51.1584 121.859 51.1766 121.841 51.1961 121.822C51.4376 121.587 51.6065 121.501 51.7692 121.418C51.8943 121.354 52.0234 121.289 52.2419 121.114C52.3377 121.037 52.4145 120.969 52.4792 120.911C52.6753 120.735 52.9262 120.53 53.2699 120.612C53.6342 120.711 53.7591 121.059 53.842 121.289C53.99 121.699 54.0356 121.981 54.0657 122.168C54.0766 122.237 54.0892 122.314 54.0987 122.339C54.1785 122.54 55.1795 122.592 55.5561 122.614C56.4027 122.659 57.1353 122.699 57.3115 123.279C57.4379 123.694 57.1744 124.146 56.5058 124.659C56.2976 124.819 56.0894 124.929 55.908 125.011C56.0195 125.117 56.1084 125.26 56.1139 125.456C56.1261 125.918 55.6517 126.273 54.7039 126.512C54.4684 126.572 54.1516 126.652 53.7371 126.632C53.5418 126.622 53.3708 126.592 53.225 126.564C53.2032 126.647 53.1634 126.734 53.0915 126.816C52.8806 127.057 52.5399 127.119 52.0775 126.983C51.567 126.84 51.1636 126.647 50.8077 126.477C50.4968 126.329 50.2287 126.202 50.0038 126.167C49.5854 126.109 49.1953 126.367 48.7285 126.711L47.5586 127.589H47.5586L47.5586 127.589Z" fill="#F2F2F2"/>
<path d="M41.5841 163.077L41.2584 162.755L41.2643 162.298L41.2584 162.755L40.8056 162.707C40.8078 162.665 40.8048 162.565 40.8015 162.41C40.7841 161.558 40.73 158.964 41.0911 154.98C41.3432 152.199 41.7645 149.375 42.3434 146.587C42.9232 143.795 43.5249 141.717 44.0082 140.047C44.373 138.787 44.7411 137.592 45.1005 136.429C46.0596 133.32 46.9651 130.383 47.5259 127.033C47.6515 126.285 47.9121 124.728 47.3785 122.891C47.0689 121.825 46.5388 120.822 45.8024 119.911L46.5152 119.335C47.3278 120.342 47.914 121.453 48.2578 122.636C48.8495 124.673 48.5655 126.37 48.4291 127.185C47.8583 130.594 46.9437 133.559 45.9752 136.698C45.6176 137.858 45.2506 139.047 44.8875 140.301C44.4086 141.956 43.8122 144.016 43.24 146.772C42.6677 149.527 42.2517 152.316 42.0024 155.062C41.6461 158.997 41.6996 161.551 41.7171 162.39C41.7262 162.838 41.7281 162.932 41.5841 163.077L41.5841 163.077Z" fill="#F2F2F2"/>
<path d="M43.8468 120.965C43.8101 120.957 43.7732 120.948 43.7363 120.937C42.9846 120.726 42.3816 120.113 41.9436 119.116C41.7386 118.647 41.6902 118.154 41.5937 117.17C41.5786 117.018 41.5117 116.25 41.5939 115.232C41.6474 114.567 41.7189 114.3 41.8999 114.091C42.1008 113.857 42.3716 113.723 42.6577 113.656C42.6654 113.568 42.6942 113.482 42.7513 113.4C42.9867 113.062 43.3806 113.201 43.5944 113.273C43.7021 113.312 43.8363 113.361 43.9873 113.387C44.2245 113.428 44.3662 113.386 44.5806 113.324C44.7858 113.264 45.0409 113.19 45.3935 113.196C46.0893 113.206 46.6044 113.519 46.7743 113.622C47.6688 114.159 47.9776 115.017 48.335 116.01C48.4061 116.209 48.6417 116.928 48.6966 117.854C48.7363 118.523 48.6487 118.796 48.5483 118.992C48.3432 119.394 48.0291 119.58 47.2496 119.973C46.4353 120.383 46.0267 120.589 45.6917 120.695C44.9121 120.94 44.4226 121.093 43.8468 120.965V120.965Z" fill="#F2F2F2"/>
<path d="M252.89 43.4385C252.89 43.4385 257.947 46.4042 256.288 49.3371C254.63 52.27 252.318 56.265 253.886 57.5232C255.455 58.7814 258.045 64.3287 258.045 64.3287C258.045 64.3287 269.098 62.7848 268.061 71.3713C267.023 79.9577 261.83 81.1283 266.281 84.9057C270.732 88.6831 261.655 93.2008 261.655 93.2008C261.655 93.2008 255.389 91.2481 253.959 85.2433C252.53 79.2384 255.234 89.8347 254.327 90.5945C253.42 91.3542 249.899 96.3623 247.407 89.7038C244.915 83.0454 247.383 80.4638 244.09 76.5341C240.798 72.6044 238.56 66.2482 238.658 65.1371C238.756 64.026 234.892 53.8873 240.839 49.9332C246.787 45.9792 252.89 43.4385 252.89 43.4385V43.4385Z" fill="#2F2E41"/>
<path d="M302.701 136.601C305.637 139.031 309.271 139.486 310.817 137.617C312.364 135.749 311.237 132.264 308.299 129.834C307.139 128.847 305.759 128.152 304.276 127.808L291.705 117.669L287.073 123.669L299.957 133.027C300.573 134.421 301.514 135.646 302.701 136.601Z" fill="#FFB6B6"/>
<path d="M265.027 81.3073C265.027 81.3073 255.163 74.71 251.932 77.945C248.702 81.1799 249.473 89.2599 249.473 89.2599L275.343 119.409L295.856 132.448L301.357 123.835L284.111 108.446L265.027 81.3073V81.3073Z" fill="#3F3D56"/>
<path d="M250.567 67.0165L254.146 79.7388H234.501L240.97 64.063L250.567 67.0165Z" fill="#FFB6B6"/>
<path opacity="0.1" d="M250.567 67.0165L254.146 79.7388H234.501L240.97 64.063L250.567 67.0165Z" fill="black"/>
<path d="M207.725 160.95C207.471 164.752 209.228 167.966 211.648 168.127C214.068 168.288 216.235 165.336 216.488 161.531C216.61 160.013 216.366 158.488 215.778 157.083L216.649 140.957L209.073 140.709L209.018 156.633C208.249 157.948 207.805 159.428 207.725 160.95Z" fill="#FFB6B6"/>
<path d="M230.538 98.0498C230.538 98.0498 230.119 86.1897 225.605 85.4616C221.092 84.7336 214.99 90.0854 214.99 90.0854L205.667 128.703L207.089 152.968L217.293 152.391L219.687 129.402L230.538 98.0498V98.0498Z" fill="#3F3D56"/>
<path d="M274.297 239.781C274.297 239.781 281.721 253.568 281.19 253.038C280.66 252.508 271.645 255.689 271.645 255.689L266.343 241.902L274.297 239.781Z" fill="#FFB6B6"/>
<path d="M285.254 143.274C285.254 143.274 289.054 158.465 288.671 157.82C288.287 157.176 278.767 158.04 278.767 158.04L277.022 143.372L285.254 143.274Z" fill="#FFB6B6"/>
<path d="M255.737 75.4966H237.203L217.027 89.2836L211.194 137.538L214.376 147.083L220.209 158.219C220.209 158.219 214.376 133.826 228.693 143.371C243.011 152.916 244.071 154.507 244.071 154.507L263.161 144.962L270.32 105.457L265.017 83.7158L255.737 75.4966Z" fill="#3F3D56"/>
<path d="M219.148 140.72C235.925 143.077 251.078 141.022 263.425 131.341C263.425 131.341 272.44 161.566 256.002 164.748C239.563 167.93 221.269 162.461 219.148 157.158C217.027 151.856 219.148 140.72 219.148 140.72Z" fill="#2F2E41"/>
<path d="M250.434 150.265L268.729 193.383L277.213 243.228L266.077 245.88L246.159 200.011L219.148 156.098L250.434 150.265Z" fill="#2F2E41"/>
<path d="M252.82 137.969C252.82 137.969 257.062 105.092 265.017 102.971C268.894 101.937 272.52 102.038 275.218 102.412C277.937 102.789 280.104 104.866 280.58 107.57L287.808 148.674H277.586L274.296 137.538L265.547 152.817L252.82 137.969V137.969Z" fill="#2F2E41"/>
<path d="M278.804 153.878L288.91 152.817L290.47 158.65C290.47 158.65 306.908 173.498 298.424 174.558C289.94 175.619 281.986 169.786 281.986 169.786L270.314 163.091C270.314 163.091 274.827 151.061 278.009 151.061C281.19 151.061 278.804 153.878 278.804 153.878Z" fill="#2F2E41"/>
<path d="M273.501 253.303L283.608 252.243L285.167 258.076C285.167 258.076 301.606 272.923 293.121 273.984C284.637 275.044 276.683 269.212 276.683 269.212L265.012 262.516C265.012 262.516 265.812 249.956 268.994 249.956C272.176 249.956 273.501 253.303 273.501 253.303Z" fill="#2F2E41"/>
<path d="M245.899 69.7815C252.433 69.7815 257.73 64.4847 257.73 57.9508C257.73 51.4169 252.433 46.1201 245.899 46.1201C239.365 46.1201 234.068 51.4169 234.068 57.9508C234.068 64.4847 239.365 69.7815 245.899 69.7815Z" fill="#FFB6B6"/>
<path d="M250.435 44.7398C250.435 44.7398 252.407 50.2607 249.252 51.4438C246.097 52.6269 241.759 54.2043 242.153 56.1761C242.548 58.1479 240.97 64.0632 240.97 64.0632C240.97 64.0632 250.435 69.9785 244.125 75.8939C237.815 81.8092 233.083 79.3716 234.069 85.1255C235.055 90.8794 225.196 88.5132 225.196 88.5132C225.196 88.5132 221.647 82.9923 224.407 77.4713C227.168 71.9503 222.435 81.8092 221.252 81.8092C220.069 81.8092 214.154 83.3866 216.52 76.6826C218.886 69.9785 222.435 69.5842 222.435 64.4575C222.435 59.3309 224.802 53.0212 225.59 52.2325C226.379 51.4438 229.928 41.1906 237.027 41.9793C244.125 42.768 250.435 44.7398 250.435 44.7398Z" fill="#2F2E41"/>
<path d="M147.031 239.781C147.031 239.781 139.607 253.568 140.137 253.038C140.668 252.508 149.682 255.689 149.682 255.689L154.985 241.902L147.031 239.781Z" fill="#A0616A"/>
<path d="M202.18 140.72C185.403 143.077 170.249 141.022 157.902 131.341C157.902 131.341 148.887 161.566 165.326 164.748C181.764 167.93 200.059 162.461 202.18 157.158C204.301 151.856 202.18 140.72 202.18 140.72Z" fill="#2F2E41"/>
<path d="M170.894 150.265L152.6 193.383L144.115 243.228L155.251 245.88L175.169 200.011L202.18 156.098L170.894 150.265Z" fill="#2F2E41"/>
<path d="M147.826 253.303L137.72 252.243L136.161 258.076C136.161 258.076 119.722 272.923 128.206 273.984C136.691 275.044 144.645 269.212 144.645 269.212L156.316 262.516C156.316 262.516 155.515 249.956 152.334 249.956C149.152 249.956 147.826 253.303 147.826 253.303Z" fill="#2F2E41"/>
<path d="M163.794 232.528C163.794 232.528 160.986 247.932 161.327 247.264C161.667 246.596 171.224 246.842 171.224 246.842L172.014 232.091L163.794 232.528Z" fill="#A0616A"/>
<path d="M158.876 140.016L154.776 186.674L162.083 236.706L173.494 235.793L178.29 186.017L190.436 135.913L158.876 140.016Z" fill="#2F2E41"/>
<path d="M168.722 245.145L158.781 247.254L159.097 253.283C159.097 253.283 148.041 272.478 156.439 270.869C164.837 269.261 170.603 261.258 170.603 261.258L179.64 251.289C179.64 251.289 175.003 239.589 171.977 240.57C168.95 241.552 168.722 245.145 168.722 245.145Z" fill="#2F2E41"/>
<path d="M168.438 43.4385C168.438 43.4385 163.381 46.4042 165.039 49.3371C166.698 52.27 169.01 56.265 167.441 57.5232C165.873 58.7814 163.283 64.3287 163.283 64.3287C163.283 64.3287 152.229 62.7848 153.267 71.3713C154.305 79.9577 159.498 81.1283 155.047 84.9057C150.596 88.6831 159.673 93.2008 159.673 93.2008C159.673 93.2008 165.939 91.2481 167.368 85.2433C168.798 79.2384 166.094 89.8347 167.001 90.5945C167.908 91.3542 171.429 96.3623 173.921 89.7038C176.412 83.0454 173.945 80.4638 177.237 76.5341C180.53 72.6044 182.768 66.2482 182.67 65.1371C182.572 64.026 186.436 53.8873 180.488 49.9332C174.541 45.9792 168.438 43.4385 168.438 43.4385V43.4385Z" fill="#2F2E41"/>
<path d="M170.761 67.0165L167.182 79.7388H186.827L180.358 64.063L170.761 67.0165Z" fill="#A0616A"/>
<path opacity="0.1" d="M170.761 67.0165L167.182 79.7388H186.827L180.358 64.063L170.761 67.0165Z" fill="black"/>
<path d="M213.603 160.95C213.857 164.752 212.1 167.966 209.68 168.127C207.26 168.288 205.093 165.336 204.84 161.531C204.718 160.013 204.961 158.488 205.55 157.083L204.679 140.957L212.255 140.709L212.309 156.633C213.079 157.948 213.523 159.428 213.603 160.95H213.603Z" fill="#A0616A"/>
<path d="M190.79 98.0498C190.79 98.0498 191.209 86.1897 195.722 85.4616C200.236 84.7336 206.338 90.0854 206.338 90.0854L215.661 128.703L214.238 152.968L204.035 152.391L201.64 129.402L190.79 98.0498V98.0498Z" fill="url(#paint0_linear_2133_20180)"/>
<path d="M165.591 75.4966H184.125L204.301 89.2836L210.134 137.538L206.952 147.083L201.119 158.219C201.119 158.219 206.952 133.826 192.635 143.371C192.491 143.467 192.35 143.561 192.209 143.655C182.993 149.811 170.832 149.179 162.301 142.104L155.516 136.478L159.228 117.918L156.311 83.7158L165.591 75.4966V75.4966Z" fill="url(#paint1_linear_2133_20180)"/>
<path d="M119.212 135.91C116.24 138.295 112.599 138.695 111.082 136.803C109.564 134.911 110.744 131.444 113.718 129.058C114.893 128.089 116.283 127.415 117.772 127.094L130.495 117.147L135.035 123.217L122.011 132.378C121.373 133.762 120.414 134.973 119.212 135.91V135.91Z" fill="#A0616A"/>
<path d="M157.722 81.1951C157.722 81.1951 167.686 74.7486 170.867 78.0323C174.048 81.3159 173.154 89.3832 173.154 89.3832L146.829 119.136L126.12 131.862L120.751 123.166L138.229 108.041L157.722 81.1951Z" fill="url(#paint2_linear_2133_20180)"/>
<path d="M175.428 69.7815C181.962 69.7815 187.259 64.4847 187.259 57.9508C187.259 51.4169 181.962 46.1201 175.428 46.1201C168.894 46.1201 163.598 51.4169 163.598 57.9508C163.598 64.4847 168.894 69.7815 175.428 69.7815Z" fill="#A0616A"/>
<path d="M169.538 50.0207C169.538 50.0207 167.795 44.2109 170.7 44.2109C173.605 44.2109 185.225 44.7919 186.387 45.9539C187.549 47.1158 201.298 58.7775 193.165 68.0731C185.031 77.3688 193.165 81.8602 193.165 81.8602C193.165 81.8602 199.168 95.918 193.358 97.08C187.549 98.242 163.718 91.5979 169.538 80.8126C175.855 69.1083 178.794 50.6349 169.538 50.0207L169.538 50.0207Z" fill="#2F2E41"/>
<path d="M363.13 136.391C362.942 135.816 361.518 136.069 361.382 135.555C361.245 135.043 362.611 134.613 363.659 133.17C363.848 132.91 365.039 131.269 364.582 130.579C363.716 129.271 357.695 132.529 356.249 130.701C355.932 130.3 355.801 129.611 354.856 128.329C354.481 127.82 354.239 127.573 353.951 127.581C353.542 127.591 353.396 128.103 352.753 129.029C351.789 130.419 351.442 130.244 350.807 131.383C350.335 132.228 350.279 132.768 349.94 132.8C349.459 132.845 349.26 131.793 348.672 131.752C348.072 131.71 347.472 132.75 347.175 133.563C346.616 135.087 346.962 136.253 347.039 137.414C347.122 138.676 346.927 140.524 345.555 142.895L332.621 163.502C335.399 159.301 343.284 147.845 346.461 143.643C347.378 142.43 348.363 141.212 349.88 140.983C351.341 140.763 353.117 141.485 355.598 141.443C355.887 141.438 356.694 141.414 356.89 140.987C357.052 140.634 356.649 140.327 356.796 139.995C356.992 139.549 357.876 139.74 359.08 139.444C359.929 139.236 360.506 138.891 361.002 138.595C361.152 138.506 363.38 137.156 363.13 136.391V136.391Z" fill="#F2F2F2"/>
<path d="M329.253 141.202C328.916 141.128 328.63 141.9 328.338 141.819C328.047 141.738 328.231 140.944 327.825 140.013C327.751 139.845 327.29 138.787 326.819 138.812C325.928 138.86 325.789 142.755 324.475 142.937C324.186 142.977 323.811 142.843 322.909 142.937C322.55 142.974 322.36 143.021 322.28 143.165C322.167 143.369 322.376 143.588 322.646 144.171C323.05 145.045 322.864 145.165 323.239 145.805C323.518 146.281 323.767 146.464 323.685 146.64C323.568 146.889 322.994 146.683 322.805 146.959C322.611 147.242 322.948 147.836 323.261 148.217C323.848 148.931 324.52 149.097 325.112 149.395C325.756 149.718 326.606 150.347 327.374 151.704L333.756 163.998C332.496 161.423 329.148 154.248 328.003 151.476C327.672 150.676 327.359 149.841 327.684 149.03C327.997 148.25 328.864 147.586 329.559 146.357C329.64 146.213 329.861 145.81 329.708 145.591C329.581 145.409 329.315 145.518 329.194 145.351C329.032 145.126 329.381 144.747 329.583 144.071C329.726 143.594 329.723 143.211 329.721 142.882C329.72 142.783 329.7 141.3 329.253 141.202V141.202V141.202Z" fill="#F2F2F2"/>
<path d="M335.62 144.202L335.821 142.35L335.944 142.233C336.513 141.695 336.869 141.125 337.003 140.539C337.024 140.445 337.04 140.351 337.057 140.255C337.124 139.874 337.207 139.401 337.573 138.909C337.778 138.635 338.32 138.016 338.879 138.232C339.03 138.289 339.131 138.387 339.202 138.49C339.22 138.472 339.238 138.454 339.258 138.435C339.499 138.2 339.668 138.114 339.831 138.031C339.956 137.968 340.085 137.902 340.303 137.727C340.399 137.651 340.476 137.582 340.541 137.524C340.737 137.349 340.988 137.144 341.331 137.225C341.696 137.324 341.821 137.672 341.904 137.902C342.052 138.312 342.097 138.595 342.127 138.782C342.138 138.85 342.151 138.927 342.16 138.952C342.24 139.153 343.241 139.205 343.618 139.227C344.464 139.273 345.197 139.313 345.373 139.892C345.499 140.307 345.236 140.759 344.567 141.272C344.359 141.432 344.151 141.542 343.969 141.624C344.081 141.73 344.17 141.873 344.175 142.069C344.188 142.531 343.713 142.886 342.765 143.126C342.53 143.186 342.213 143.265 341.799 143.245C341.603 143.235 341.432 143.206 341.287 143.178C341.265 143.261 341.225 143.347 341.153 143.429C340.942 143.671 340.601 143.732 340.139 143.596C339.628 143.454 339.225 143.26 338.869 143.09C338.558 142.942 338.29 142.815 338.065 142.781C337.647 142.722 337.257 142.98 336.79 143.324L335.62 144.202H335.62V144.202Z" fill="#F2F2F2"/>
<path d="M338.959 133.652L337.117 133.928L336.973 133.838C336.308 133.424 335.666 133.224 335.065 133.244C334.97 133.247 334.874 133.255 334.777 133.263C334.392 133.295 333.913 133.335 333.344 133.106C333.027 132.977 332.291 132.61 332.358 132.014C332.375 131.854 332.443 131.731 332.526 131.636C332.504 131.623 332.482 131.61 332.458 131.596C332.17 131.422 332.044 131.281 331.923 131.144C331.829 131.04 331.733 130.931 331.509 130.764C331.41 130.691 331.324 130.634 331.252 130.586C331.032 130.441 330.77 130.25 330.762 129.897C330.766 129.52 331.07 129.311 331.272 129.172C331.631 128.925 331.892 128.809 332.066 128.733C332.129 128.705 332.201 128.673 332.222 128.657C332.396 128.529 332.193 127.548 332.118 127.178C331.948 126.348 331.801 125.629 332.317 125.311C332.686 125.084 333.19 125.224 333.856 125.741C334.063 125.902 334.223 126.075 334.348 126.23C334.422 126.095 334.538 125.973 334.726 125.918C335.17 125.789 335.634 126.157 336.106 127.014C336.224 127.226 336.381 127.512 336.467 127.918C336.507 128.11 336.521 128.283 336.531 128.431C336.617 128.431 336.711 128.448 336.808 128.496C337.095 128.639 337.241 128.953 337.227 129.435C337.219 129.965 337.134 130.404 337.06 130.791C336.995 131.13 336.941 131.421 336.964 131.647C337.014 132.067 337.363 132.379 337.814 132.743L338.959 133.652H338.959V133.652Z" fill="#F2F2F2"/>
<path d="M339.207 128.119L339.408 126.267L339.531 126.15C340.1 125.612 340.456 125.042 340.59 124.456C340.611 124.362 340.627 124.268 340.644 124.172C340.711 123.791 340.794 123.318 341.16 122.826C341.365 122.552 341.907 121.933 342.466 122.149C342.617 122.206 342.718 122.304 342.789 122.407C342.807 122.389 342.825 122.371 342.845 122.352C343.086 122.117 343.255 122.031 343.418 121.948C343.543 121.885 343.672 121.819 343.89 121.644C343.986 121.568 344.063 121.499 344.128 121.441C344.324 121.266 344.575 121.061 344.918 121.142C345.283 121.241 345.408 121.589 345.49 121.819C345.638 122.229 345.684 122.512 345.714 122.699C345.725 122.767 345.738 122.844 345.747 122.869C345.827 123.07 346.828 123.122 347.205 123.144C348.051 123.19 348.784 123.23 348.96 123.809C349.086 124.224 348.823 124.676 348.154 125.189C347.946 125.349 347.738 125.459 347.556 125.541C347.668 125.647 347.757 125.79 347.762 125.986C347.775 126.448 347.3 126.803 346.352 127.043C346.117 127.103 345.8 127.182 345.385 127.162C345.19 127.152 345.019 127.123 344.873 127.095C344.852 127.178 344.812 127.264 344.74 127.346C344.529 127.588 344.188 127.649 343.726 127.513C343.215 127.371 342.812 127.177 342.456 127.007C342.145 126.859 341.877 126.732 341.652 126.698C341.234 126.639 340.844 126.897 340.377 127.241L339.207 128.119H339.207V128.119Z" fill="#F2F2F2"/>
<path d="M333.233 163.607L332.907 163.285L332.913 162.828L332.907 163.285L332.454 163.238C332.456 163.195 332.453 163.095 332.45 162.94C332.432 162.088 332.378 159.495 332.74 155.51C332.992 152.729 333.413 149.906 333.992 147.117C334.572 144.325 335.173 142.247 335.657 140.577C336.021 139.317 336.39 138.123 336.749 136.959C337.708 133.85 338.614 130.913 339.174 127.563C339.3 126.815 339.561 125.258 339.027 123.421C338.717 122.356 338.187 121.353 337.451 120.441L338.164 119.865C338.976 120.873 339.562 121.983 339.906 123.167C340.498 125.204 340.214 126.9 340.078 127.715C339.507 131.124 338.592 134.089 337.624 137.228C337.266 138.388 336.899 139.577 336.536 140.832C336.057 142.486 335.461 144.546 334.888 147.303C334.316 150.058 333.9 152.846 333.651 155.593C333.295 159.527 333.348 162.081 333.366 162.921C333.375 163.369 333.377 163.463 333.233 163.607V163.607Z" fill="#F2F2F2"/>
<path d="M335.495 121.495C335.459 121.487 335.422 121.478 335.385 121.467C334.633 121.256 334.03 120.643 333.592 119.646C333.387 119.177 333.339 118.684 333.242 117.7C333.227 117.548 333.16 116.78 333.242 115.763C333.296 115.098 333.367 114.831 333.548 114.621C333.749 114.387 334.02 114.253 334.306 114.186C334.314 114.098 334.343 114.012 334.4 113.931C334.635 113.592 335.029 113.731 335.243 113.804C335.351 113.842 335.485 113.891 335.636 113.917C335.873 113.958 336.015 113.916 336.229 113.854C336.434 113.794 336.689 113.72 337.042 113.727C337.738 113.736 338.253 114.049 338.423 114.152C339.317 114.689 339.626 115.547 339.983 116.54C340.054 116.739 340.29 117.458 340.345 118.385C340.385 119.053 340.297 119.326 340.197 119.522C339.992 119.924 339.678 120.111 338.898 120.503C338.084 120.914 337.675 121.119 337.34 121.225C336.561 121.47 336.071 121.624 335.495 121.495V121.495Z" fill="#F2F2F2"/>
</g>
<defs>
<linearGradient id="paint0_linear_2133_20180" x1="215.661" y1="152.968" x2="183.94" y2="149.583" gradientUnits="userSpaceOnUse">
<stop stop-color="#6949FF"/>
<stop offset="1" stop-color="#876DFF"/>
</linearGradient>
<linearGradient id="paint1_linear_2133_20180" x1="210.134" y1="158.219" x2="142.17" y2="145.208" gradientUnits="userSpaceOnUse">
<stop stop-color="#6949FF"/>
<stop offset="1" stop-color="#876DFF"/>
</linearGradient>
<linearGradient id="paint2_linear_2133_20180" x1="173.27" y1="131.862" x2="110.386" y2="114.376" gradientUnits="userSpaceOnUse">
<stop stop-color="#6949FF"/>
<stop offset="1" stop-color="#876DFF"/>
</linearGradient>
<clipPath id="clip0_2133_20180">
<rect width="350" height="253.234" fill="white" transform="translate(16 23)"/>
</clipPath>
</defs>
</svg>
