<svg width="382" height="300" viewBox="0 0 382 300" fill="none" xmlns="http://www.w3.org/2000/svg">
<g clip-path="url(#clip0_2133_19955)">
<path d="M173.429 258.383L177.143 246.289C172.675 241.372 167.074 237.619 160.826 235.357C166.93 245.47 161.015 258.661 163.48 270.212C164.276 273.809 165.872 277.181 168.148 280.077C170.425 282.974 173.324 285.321 176.631 286.944L182.266 293.927C185.22 288.765 187.021 283.025 187.543 277.101C188.065 271.176 187.296 265.21 185.29 259.611C184.134 256.481 182.588 253.51 180.688 250.766C177.34 254.703 173.429 258.383 173.429 258.383Z" fill="#F2F2F2"/>
<path d="M153.011 259.928L150.941 247.447C144.749 245.039 138.062 244.178 131.462 244.94C141.435 251.268 142.024 265.713 149.382 274.953C151.699 277.817 154.63 280.123 157.96 281.7C161.289 283.277 164.931 284.085 168.615 284.064L176.772 287.8C177.115 281.863 176.166 275.922 173.991 270.387C171.816 264.851 168.467 259.854 164.175 255.737C161.744 253.452 159.035 251.482 156.112 249.873C154.87 254.89 153.011 259.928 153.011 259.928Z" fill="#F2F2F2"/>
<path d="M274.55 290.823L268.83 290.823L266.108 268.76L274.551 268.76L274.55 290.823Z" fill="#FFB6B6"/>
<path d="M276.008 296.367L257.564 296.367V296.133C257.565 294.23 258.321 292.404 259.667 291.057C261.013 289.711 262.839 288.955 264.743 288.955H264.744L268.113 286.399L274.398 288.955L276.008 288.955L276.008 296.367Z" fill="#2F2E41"/>
<path d="M366.949 269.959L363.049 274.143L345.054 261.091L350.81 254.916L366.949 269.959Z" fill="#FFB6B6"/>
<path d="M372 272.672L359.424 286.164L359.254 286.005C357.861 284.707 357.041 282.908 356.974 281.006C356.907 279.103 357.599 277.252 358.897 275.859L358.897 275.858L359.324 271.651L365.48 268.796L366.578 267.618L372 272.672Z" fill="#2F2E41"/>
<path d="M358.485 257.559L352.44 270.204L315.314 245.623L309.913 238.264L292.203 214.135L285.005 225.558L279.996 237.498C278.363 238.563 276.988 239.977 275.968 241.638C274.949 243.3 274.311 245.166 274.101 247.104L273.872 249.218L277.037 277.672L265.007 281.366L258.098 243.142L260.356 234.859L262.682 223.233L274.389 186.492H305.718L323.687 224.74L325.001 232.534L330.095 238.381L358.485 257.559Z" fill="#2F2E41"/>
<path d="M293.378 126.381L298.652 130.397L305.012 132.352C305.012 132.352 307.642 169.338 310.011 171.707C312.38 174.076 310.243 174.14 310.719 177.218C311.195 180.295 312.352 186.604 312.352 186.604C296.36 195.07 282.573 195.297 271.499 185.391C271.357 184.778 271.429 184.135 271.703 183.569C271.976 183.003 272.435 182.547 273.004 182.278C275.065 181.184 271.104 176.079 272.788 175.226C274.472 174.372 272.103 166.969 272.103 166.969L273.657 151.521L272.43 149.052L275.426 133.942L280.626 132.044L282.703 127.039L293.378 126.381Z" fill="#3F3D56"/>
<path d="M296.682 192.118C296.658 191.45 296.781 190.785 297.042 190.17C297.303 189.555 297.696 189.004 298.193 188.557C298.69 188.11 299.279 187.778 299.918 187.583C300.558 187.388 301.232 187.336 301.894 187.43L309.326 172.983L313.467 180.341L305.774 192.932C305.543 194.033 304.915 195.011 304.011 195.68C303.106 196.349 301.987 196.664 300.867 196.563C299.746 196.463 298.701 195.955 297.929 195.136C297.158 194.317 296.714 193.243 296.682 192.118H296.682Z" fill="#FFB6B6"/>
<path d="M309.199 188.584L325.141 163.877L325.088 163.763C325.028 163.633 321.418 155.836 317.92 148.695C317.381 147.595 316.845 146.511 316.325 145.473C316.101 145.024 315.88 144.586 315.662 144.156C314.193 141.26 312.91 138.866 312.143 137.729C310.449 135.158 307.925 133.244 304.993 132.305L304.919 132.286L304.849 132.315C303.414 132.92 302.229 133.996 301.488 135.366C300.747 136.735 300.495 138.316 300.773 139.848C302.156 147.237 305.237 154.203 309.774 160.197L312.358 163.603L303.377 183.129L309.199 188.584Z" fill="#3F3D56"/>
<path d="M254.38 93.8751C254.819 94.3791 255.142 94.9732 255.327 95.6156C255.511 96.258 255.553 96.933 255.448 97.5931C255.343 98.2533 255.095 98.8824 254.721 99.4363C254.347 99.9902 253.856 100.455 253.283 100.799L256.606 116.702L248.757 113.594L246.804 98.9688C246.291 97.9675 246.162 96.8126 246.444 95.723C246.725 94.6335 247.396 93.6848 248.33 93.057C249.263 92.4291 250.395 92.1656 251.51 92.3164C252.625 92.4671 253.647 93.0217 254.38 93.8751H254.38Z" fill="#FFB6B6"/>
<path d="M246.882 104.502L250.056 133.735L250.169 133.79C250.261 133.836 254.283 135.808 259.219 138.157C260.052 138.554 259.933 140.27 260.803 140.681C261.403 140.963 262.986 139.938 263.592 140.221C268.988 142.744 274.444 145.198 276.618 145.863C279.554 146.793 282.719 146.691 285.589 145.574L285.658 145.542L285.694 145.475C286.427 144.102 286.671 142.519 286.384 140.989C286.097 139.459 285.297 138.072 284.117 137.057C278.39 132.188 271.609 128.717 264.311 126.917L260.158 125.898L254.84 105.074L246.882 104.502Z" fill="#3F3D56"/>
<path d="M287.755 124.725C293.516 124.725 298.187 120.055 298.187 114.294C298.187 108.532 293.516 103.862 287.755 103.862C281.994 103.862 277.323 108.532 277.323 114.294C277.323 120.055 281.994 124.725 287.755 124.725Z" fill="#FFB6B6"/>
<path d="M277.398 107.303C278.256 104.808 282.526 103.076 289.45 102.836C296.373 102.595 298.129 110.754 298.129 110.754C302.751 114.503 293.194 124.541 292.731 124.179L292.939 122.293C293.284 119.17 294.746 116.732 292.886 113.477L291.1 113.497C288.793 113.941 286.486 114.385 284.179 114.828L286.91 112.423L286.833 112.304C285.671 112.909 284.407 113.293 283.105 113.436C281.637 113.523 280.032 112.938 279.329 111.647C279.141 111.292 279.026 110.903 278.991 110.503C277.012 111.294 276.106 113.734 276.106 113.734C276.106 113.734 276.54 109.799 277.398 107.303Z" fill="#2F2E41"/>
<path d="M74.0296 107.929C73.8881 107.75 73.7357 107.579 73.5732 107.418C73.6129 107.364 73.6526 107.304 73.6923 107.25L74.0296 107.929Z" fill="#2F2E41"/>
<path d="M76.0582 149.885C74.3517 152.916 70.9438 154.608 67.5657 155.436C63.7713 156.43 59.7756 156.353 56.0225 155.213C55.5463 155.059 55.07 154.88 54.6087 154.682C54.8305 154.093 55.0063 153.488 55.1345 152.871C55.3072 152.038 55.3936 151.188 55.3925 150.337C55.0166 151.07 54.5297 151.741 53.9489 152.326C53.501 152.796 52.9922 153.205 52.436 153.541C50.7109 152.494 49.2172 151.107 48.0459 149.464C48.1203 149.28 48.1947 149.096 48.2642 148.913C48.6244 147.954 48.9096 146.969 49.1174 145.966C49.3992 144.61 49.5405 143.229 49.539 141.844C48.9274 143.037 48.1342 144.129 47.1877 145.078C46.9039 145.382 46.6025 145.669 46.2849 145.937C45.7931 144.443 45.603 142.866 45.7256 141.299C45.8482 139.731 46.2811 138.203 46.9992 136.804C48.9636 133.173 52.7733 131.015 56.1663 128.669C59.5643 126.323 62.9623 123.148 63.25 119.026C63.4435 116.243 62.1537 113.455 62.6696 110.717C62.8866 109.562 63.4163 108.489 64.201 107.614C64.9857 106.74 65.9953 106.098 67.1199 105.758C68.2445 105.417 69.4408 105.392 70.5787 105.685C71.7165 105.978 72.7522 106.577 73.5729 107.418C71.6482 110.146 69.7334 112.969 68.9546 116.213C68.161 119.517 68.8108 123.391 71.4151 125.578C72.308 126.332 73.4043 126.868 74.0938 127.811C75.0115 129.061 75.0164 130.727 75.1653 132.265C75.4629 135.256 76.4401 138.134 76.9659 141.095C77.4967 144.052 77.5265 147.261 76.0582 149.885Z" fill="#2F2E41"/>
<path d="M41.0781 272.899L45.6056 276.397L61.2523 260.599L54.5702 255.437L41.0781 272.899Z" fill="#A0616A"/>
<path d="M41.2702 269.481L48.7569 274.584L46.3877 277.65L49.5607 287.607C49.7175 288.099 49.7129 288.628 49.5478 289.117C49.3827 289.606 49.0655 290.029 48.6427 290.325C48.2199 290.621 47.7136 290.774 47.1976 290.762C46.6816 290.75 46.183 290.573 45.7746 290.257L37.2544 283.674L38.1294 279.506L35.2124 282.096L32 279.614L41.2702 269.481Z" fill="#2F2E41"/>
<path d="M64.0469 116.742C64.0462 118.511 64.4798 120.253 65.3095 121.815C66.1393 123.377 67.3398 124.712 68.8058 125.702C70.2717 126.692 71.9582 127.307 73.7173 127.493C75.4764 127.679 77.2542 127.43 78.8947 126.768C80.5352 126.107 81.9883 125.053 83.1263 123.698C84.2643 122.344 85.0524 120.731 85.4216 119.001C85.7908 117.271 85.7296 115.477 85.2436 113.777C84.7575 112.076 83.8613 110.52 82.6338 109.247L82.5819 109.195C82.4955 109.104 82.409 109.013 82.3182 108.927C82.3177 108.927 82.3171 108.927 82.3166 108.927C82.316 108.926 82.3156 108.926 82.3152 108.926C82.3148 108.925 82.3144 108.925 82.3142 108.924C82.314 108.924 82.3139 108.923 82.3139 108.923C82.2015 108.819 82.0891 108.715 81.9724 108.616C80.0705 106.947 77.3974 105.136 74.6699 105.136C68.7004 105.136 64.0469 110.773 64.0469 116.742Z" fill="#2F2E41"/>
<path d="M125.641 111.193C125.693 111.769 125.617 112.35 125.42 112.894C125.223 113.438 124.91 113.932 124.501 114.342C124.092 114.752 123.599 115.067 123.055 115.265C122.511 115.463 121.931 115.54 121.354 115.49L94.5952 139.651L89.9902 132.378L117.742 110.915C117.89 109.953 118.387 109.078 119.138 108.457C119.888 107.835 120.841 107.511 121.814 107.545C122.788 107.58 123.715 107.97 124.421 108.642C125.126 109.314 125.56 110.222 125.641 111.193V111.193Z" fill="#A0616A"/>
<path d="M83.1589 146.943C83.1589 146.943 84.1546 148.782 87.5555 145.943C90.2783 143.67 103.323 133.801 106.133 129.757C106.775 130.011 107.483 130.045 108.145 129.852C108.808 129.66 109.388 129.252 109.794 128.694L102.094 121.951C99.7904 122.216 99.8398 123.764 100.08 124.642L94.2717 127.274L79.2734 136.859L82.4157 145.627L83.1589 146.943Z" fill="url(#paint0_linear_2133_19955)"/>
<path d="M68.6289 163.885L68.068 166.556L67.5918 176.408L88.5589 177.56L87.9078 162.408L85.8755 159.068L68.6289 163.885Z" fill="#A0616A"/>
<path d="M77.5157 128.304C82.5203 128.304 86.5773 124.247 86.5773 119.242C86.5773 114.238 82.5203 110.181 77.5157 110.181C72.5111 110.181 68.4541 114.238 68.4541 119.242C68.4541 124.247 72.5111 128.304 77.5157 128.304Z" fill="#A0616A"/>
<path d="M61.4278 152.665L61.3721 145.133C61.3708 142.423 62.288 139.792 63.9739 137.67C65.6599 135.548 68.0152 134.06 70.6556 133.449L70.6898 133.441L72.4816 131.026L79.7615 131.755L81.0958 134.482L86.3708 137.623L88.4018 144.152C89.2827 144.739 90.0335 145.501 90.6075 146.39C91.1814 147.28 91.5663 148.278 91.7383 149.323C92.4278 153.727 89.344 158.134 88.9772 158.639L88.032 163.962L67.4713 167.59L67.3044 167.611L61.4278 152.665Z" fill="url(#paint1_linear_2133_19955)"/>
<path d="M88.6042 117.627C87.5473 118.296 86.4506 118.901 85.3203 119.437C84.1731 119.989 82.9732 120.422 81.7388 120.732C81.3856 119.957 80.9534 119.221 80.4491 118.535C80.5788 119.348 80.5822 120.176 80.459 120.99C78.413 121.32 76.3174 121.148 74.3525 120.489L72.6461 117.627L72.5171 120.821C71.1034 121.079 69.6945 121.323 68.2808 121.576C68.1965 121.585 68.1122 121.605 68.0328 121.62C67.1547 117.662 68.3999 113.301 71.1679 110.662C72.5422 109.366 74.2565 108.486 76.1113 108.126C77.966 107.766 79.8849 107.94 81.6446 108.628C81.8678 108.718 82.0959 108.817 82.3142 108.921C82.3142 108.922 82.3143 108.922 82.3146 108.923C82.3148 108.924 82.3152 108.924 82.3156 108.925C82.3161 108.925 82.3167 108.926 82.3173 108.926C82.3179 108.926 82.3185 108.926 82.3192 108.926C82.4482 108.991 82.5573 109.144 82.7011 109.129C88.8919 108.44 89.0904 113.242 88.6042 117.627Z" fill="#2F2E41"/>
<path d="M73.5293 261.215L78.0637 264.704L93.6788 248.874L86.9865 243.726L73.5293 261.215Z" fill="#A0616A"/>
<path d="M74.1257 258.113L81.6227 263.201L79.2596 266.272L82.4528 276.222C82.6105 276.713 82.6071 277.242 82.4429 277.732C82.2788 278.221 81.9625 278.645 81.5403 278.942C81.1181 279.239 80.612 279.393 80.096 279.382C79.58 279.37 79.0811 279.195 78.6721 278.88L70.1386 272.314L71.0051 268.144L68.0934 270.74L64.876 268.264L74.1257 258.113Z" fill="#2F2E41"/>
<path d="M58.8154 241.896L58.8152 241.837L60.9642 238.133L58.7698 233.313L58.7039 220.928L59.0597 219.068C59.5381 216.568 59.3989 213.988 58.6541 211.554L58.614 204.015C58.537 202.126 61.4626 200.465 60.7803 198.891C54.3316 184.009 67.3655 172.657 67.4535 172.565L67.7199 172.289L69.165 173.383L70.5405 173.385L89.1022 176.767L89.2362 177.017C89.9663 178.386 91.3752 183.106 91.4588 185.242C92.3839 186.313 102.921 198.507 103.858 199.354C110.188 205.081 113.812 214.561 115.409 219.702C115.806 220.972 115.886 222.321 115.642 223.629C115.398 224.938 114.838 226.167 114.011 227.209L90.0476 253.457L83.5989 247.504L96.5652 223.877L95.6302 221.479C93.9525 221.17 92.4343 220.288 91.3345 218.984L88.7089 215.867C87.9819 215.007 87.52 213.954 87.379 212.836L85.7867 212.645L80.0832 206.657L76.1262 242.491L75.0504 245.322L56.3158 267.347L48.3789 262.386L58.8154 241.896Z" fill="#2F2E41"/>
<path d="M55.954 88.0266C55.594 88.4797 55.3378 89.0062 55.2034 89.5691C55.069 90.1319 55.0596 90.7174 55.1759 91.2843C55.2922 91.8512 55.5314 92.3857 55.8766 92.8501C56.2219 93.3145 56.6647 93.6976 57.174 93.9724L51.2168 111.609L56.0812 130.298L63.9251 126.752L59.0848 112.655L62.7061 92.1356C63.111 91.2494 63.1767 90.2455 62.8908 89.3141C62.605 88.3827 61.9874 87.5885 61.1551 87.082C60.3228 86.5755 59.3337 86.3919 58.3751 86.566C57.4165 86.7401 56.555 87.2598 55.954 88.0266Z" fill="#A0616A"/>
<path d="M63.1337 145.698C63.1337 145.698 61.2914 146.687 60.0102 142.446C58.9844 139.051 52.0038 120.615 51.878 115.693C51.2022 115.552 50.5922 115.191 50.1442 114.666C49.6961 114.141 49.4355 113.482 49.4033 112.793L59.5419 111.39C61.321 112.877 60.4293 114.143 59.746 114.745L63.1991 120.594L70.4167 136.385L64.4781 145.006L63.1337 145.698Z" fill="url(#paint2_linear_2133_19955)"/>
<path d="M68.2783 121.575C69.3195 118.435 71.1864 115.633 73.6833 113.463C76.1801 111.293 79.2149 109.835 82.4692 109.242C82.4822 109.238 82.5254 109.221 82.5816 109.195C82.6162 109.173 82.6594 109.152 82.7026 109.13C82.573 109.057 82.4476 108.992 82.3179 108.927C82.3174 108.927 82.3168 108.927 82.3163 108.927C82.3157 108.926 82.3153 108.926 82.3149 108.926C82.3145 108.925 82.3141 108.925 82.3139 108.924C82.3137 108.924 82.3136 108.923 82.3136 108.923C82.2012 108.819 82.0889 108.715 81.9721 108.616L81.6436 108.629C81.6436 108.629 70.0981 106.8 68.2783 121.575Z" fill="#FD6584"/>
<path d="M217.257 222.552C218.517 220.658 217.772 217.947 215.592 216.497C213.411 215.046 210.623 215.406 209.363 217.3C208.103 219.194 208.848 221.905 211.028 223.355C213.209 224.806 215.997 224.446 217.257 222.552Z" fill="#F2F2F2"/>
<path d="M191.678 151.862C192.938 149.968 192.193 147.257 190.012 145.807C187.832 144.356 185.044 144.716 183.784 146.61C182.523 148.504 183.269 151.215 185.449 152.665C187.629 154.116 190.418 153.756 191.678 151.862Z" fill="#F2F2F2"/>
<path d="M298.644 260.688C299.904 258.794 299.158 256.083 296.978 254.632C294.798 253.182 292.009 253.541 290.749 255.435C289.489 257.329 290.235 260.041 292.415 261.491C294.595 262.941 297.384 262.582 298.644 260.688Z" fill="#F2F2F2"/>
<path d="M82.3873 33.2699C83.6474 31.3759 82.9015 28.6648 80.7215 27.2143C78.5414 25.7639 75.7526 26.1235 74.4925 28.0174C73.2324 29.9114 73.9783 32.6226 76.1583 34.073C78.3384 35.5234 81.1272 35.1639 82.3873 33.2699Z" fill="#F2F2F2"/>
<path d="M183.307 10.9466C184.567 9.05266 183.821 6.3415 181.641 4.89107C179.461 3.44065 176.672 3.80021 175.412 5.69418C174.152 7.58815 174.898 10.2993 177.078 11.7498C179.258 13.2002 182.047 12.8406 183.307 10.9466Z" fill="#F2F2F2"/>
<path d="M135.545 198.236C136.805 196.342 136.059 193.631 133.879 192.18C131.699 190.73 128.91 191.089 127.65 192.983C126.39 194.877 127.135 197.588 129.316 199.039C131.496 200.489 134.284 200.13 135.545 198.236Z" fill="#E6E6E6"/>
<path d="M343.719 296.813H41.2885C41.1419 296.813 41.0014 296.754 40.8979 296.65C40.7944 296.546 40.7363 296.406 40.7363 296.259C40.7363 296.113 40.7944 295.972 40.8979 295.868C41.0014 295.764 41.1419 295.706 41.2885 295.706H343.719C343.866 295.706 344.007 295.764 344.111 295.868C344.214 295.972 344.273 296.112 344.273 296.259C344.273 296.406 344.214 296.547 344.111 296.651C344.007 296.755 343.866 296.813 343.719 296.813Z" fill="#CCCCCC"/>
<path d="M97.5781 112.901C95.0341 112.894 92.582 111.949 90.6907 110.247C88.7993 108.546 87.6013 106.207 87.3257 103.678L81.4215 48.8438C81.1314 46.1212 81.9331 43.3947 83.6508 41.2626C85.3684 39.1304 87.8617 37.7666 90.5837 37.4705L265.893 18.5944C268.615 18.3042 271.342 19.1058 273.474 20.8234C275.606 22.5411 276.97 25.0344 277.266 27.7563L283.171 82.5907C283.461 85.3133 282.659 88.0399 280.941 90.1721C279.224 92.3044 276.73 93.6682 274.008 93.9644L273.983 93.7332L274.008 93.9644L98.6992 112.84C98.3268 112.881 97.9526 112.901 97.5781 112.901Z" fill="#E6E6E6"/>
<path d="M263.963 21.1402C263.633 21.1403 263.304 21.158 262.977 21.1933L93.9882 39.3888C92.8066 39.516 91.6616 39.8748 90.6187 40.4445C89.5757 41.0142 88.6551 41.7838 87.9096 42.7093C87.164 43.6348 86.608 44.6981 86.2734 45.8384C85.9387 46.9788 85.832 48.1739 85.9592 49.3555L88.9445 77.0804C89.427 81.5625 90.7877 85.9056 92.9487 89.8618C95.1097 93.8181 98.0289 97.3099 101.539 100.138C105.05 102.966 109.083 105.075 113.409 106.344C117.734 107.614 122.268 108.019 126.75 107.536L245.577 94.7414C250.045 94.2603 254.375 92.9037 258.319 90.7493C262.263 88.5948 265.744 85.6845 268.564 82.1846C271.383 78.6848 273.486 74.6639 274.751 70.3514C276.017 66.039 276.421 61.5196 275.939 57.0511L272.943 29.2223C272.704 27.0056 271.656 24.9551 269.999 23.4637C268.341 21.9722 266.192 21.1449 263.963 21.1401V21.1402Z" fill="white"/>
<path d="M228.375 49.9938L133.926 60.1636C133.656 60.193 133.382 60.1689 133.122 60.0927C132.861 60.0165 132.618 59.8896 132.406 59.7193C132.194 59.549 132.018 59.3387 131.888 59.1003C131.758 58.8619 131.676 58.6002 131.647 58.3301C131.618 58.06 131.642 57.7868 131.719 57.5262C131.795 57.2655 131.922 57.0225 132.093 56.8111C132.264 56.5997 132.474 56.4239 132.713 56.2939C132.951 56.1639 133.213 56.0822 133.483 56.0535L227.933 45.8838C228.203 45.8543 228.476 45.8784 228.737 45.9546C228.998 46.0309 229.241 46.1577 229.453 46.328C229.664 46.4983 229.84 46.7087 229.971 46.947C230.101 47.1854 230.183 47.4471 230.212 47.7172C230.241 47.9873 230.217 48.2605 230.14 48.5211C230.063 48.7818 229.936 49.0248 229.766 49.2362C229.595 49.4477 229.385 49.6234 229.146 49.7534C228.907 49.8834 228.646 49.9651 228.375 49.9938Z" fill="url(#paint3_linear_2133_19955)"/>
<path d="M229.734 62.6078L135.284 72.7775C134.739 72.8362 134.193 72.676 133.766 72.3321C133.339 71.9882 133.067 71.4888 133.008 70.9438C132.949 70.3988 133.11 69.8528 133.453 69.4259C133.797 68.999 134.297 68.7262 134.842 68.6675L229.292 58.4977C229.837 58.439 230.383 58.5993 230.809 58.9432C231.236 59.2871 231.509 59.7864 231.568 60.3315C231.627 60.8765 231.466 61.4225 231.122 61.8494C230.779 62.2763 230.279 62.5491 229.734 62.6078Z" fill="url(#paint4_linear_2133_19955)"/>
<path d="M147.649 84.2062L136.643 85.3913C136.098 85.45 135.552 85.2898 135.125 84.9459C134.698 84.602 134.425 84.1026 134.366 83.5576C134.308 83.0126 134.468 82.4665 134.812 82.0397C135.156 81.6128 135.655 81.34 136.2 81.2813L147.207 80.0962C147.477 80.0667 147.75 80.0908 148.011 80.167C148.272 80.2433 148.515 80.3702 148.726 80.5404C148.938 80.7107 149.114 80.9211 149.244 81.1594C149.375 81.3978 149.457 81.6595 149.486 81.9296C149.515 82.1997 149.491 82.4729 149.414 82.7335C149.337 82.9942 149.21 83.2372 149.04 83.4486C148.869 83.6601 148.658 83.8358 148.42 83.9658C148.181 84.0958 147.92 84.1775 147.649 84.2062Z" fill="url(#paint5_linear_2133_19955)"/>
<path d="M93.8621 51.1579C95.9169 51.1579 97.5827 49.4921 97.5827 47.4373C97.5827 45.3825 95.9169 43.7168 93.8621 43.7168C91.8073 43.7168 90.1416 45.3825 90.1416 47.4373C90.1416 49.4921 91.8073 51.1579 93.8621 51.1579Z" fill="#3F3D56"/>
<path d="M260.356 32.5548C262.411 32.5548 264.077 30.8891 264.077 28.8343C264.077 26.7795 262.411 25.1138 260.356 25.1138C258.301 25.1138 256.636 26.7795 256.636 28.8343C256.636 30.8891 258.301 32.5548 260.356 32.5548Z" fill="#3F3D56"/>
<path d="M210.056 108.936C209.714 108.636 209.443 108.263 209.264 107.845C209.084 107.427 208.999 106.974 209.016 106.52C209.203 101.116 208.313 95.7284 206.398 90.6716C206.236 90.2465 206.17 89.7906 206.206 89.337C206.242 88.8834 206.378 88.4434 206.605 88.0492C206.823 87.6703 207.121 87.3436 207.479 87.0922C207.836 86.8407 208.244 86.6705 208.674 86.5936C212.999 83.984 217.432 83.2514 221.854 84.4165C222.566 84.3116 223.293 84.4642 223.904 84.847C224.515 85.2298 224.969 85.8177 225.185 86.5051C226.975 92.3166 227.971 98.3435 228.145 104.422C228.162 105.151 227.915 105.862 227.449 106.424C226.984 106.985 226.332 107.36 225.612 107.48L212.528 109.641C212.09 109.715 211.64 109.69 211.213 109.568C210.785 109.446 210.39 109.23 210.056 108.936Z" fill="url(#paint6_linear_2133_19955)"/>
<path d="M211.218 93.1908L222.23 91.3715C222.321 91.3567 222.408 91.3243 222.486 91.276C222.564 91.2276 222.631 91.1644 222.685 91.0899C222.738 91.0154 222.777 90.931 222.797 90.8417C222.818 90.7523 222.821 90.6598 222.806 90.5692C222.791 90.4787 222.759 90.392 222.71 90.3142C222.662 90.2363 222.598 90.1687 222.524 90.1154C222.449 90.0621 222.365 90.024 222.275 90.0033C222.186 89.9826 222.093 89.9798 222.003 89.9949L210.99 91.8143C210.808 91.8448 210.646 91.9464 210.538 92.0967C210.431 92.247 210.387 92.4337 210.418 92.616C210.448 92.7983 210.549 92.9612 210.699 93.0689C210.849 93.1767 211.036 93.2205 211.218 93.1908Z" fill="white"/>
<path d="M212.128 98.6969L223.141 96.8776C223.323 96.8474 223.486 96.746 223.594 96.5956C223.702 96.4452 223.745 96.2581 223.715 96.0756C223.685 95.8931 223.584 95.73 223.433 95.6222C223.283 95.5145 223.096 95.4709 222.913 95.501L211.901 97.3204C211.81 97.3351 211.724 97.3676 211.646 97.4159C211.568 97.4642 211.5 97.5275 211.446 97.602C211.393 97.6765 211.355 97.7608 211.334 97.8502C211.313 97.9395 211.31 98.0321 211.325 98.1226C211.34 98.2131 211.372 98.2998 211.421 98.3777C211.469 98.4556 211.533 98.5231 211.607 98.5765C211.682 98.6298 211.766 98.6679 211.856 98.6886C211.945 98.7092 212.038 98.7121 212.128 98.6969Z" fill="white"/>
<path d="M213.038 104.203L224.05 102.384C224.233 102.354 224.396 102.252 224.504 102.102C224.611 101.952 224.655 101.764 224.625 101.582C224.595 101.399 224.493 101.236 224.343 101.129C224.192 101.021 224.005 100.977 223.823 101.007L212.81 102.827C212.72 102.842 212.633 102.874 212.556 102.923C212.478 102.971 212.41 103.034 212.357 103.109C212.304 103.183 212.266 103.267 212.245 103.357C212.224 103.446 212.221 103.538 212.236 103.629C212.251 103.719 212.283 103.806 212.332 103.883C212.38 103.961 212.443 104.029 212.518 104.082C212.592 104.135 212.677 104.174 212.766 104.194C212.855 104.215 212.947 104.218 213.038 104.203Z" fill="white"/>
</g>
<defs>
<linearGradient id="paint0_linear_2133_19955" x1="109.794" y1="147.529" x2="74.6328" y2="135.364" gradientUnits="userSpaceOnUse">
<stop stop-color="#6949FF"/>
<stop offset="1" stop-color="#876DFF"/>
</linearGradient>
<linearGradient id="paint1_linear_2133_19955" x1="91.8384" y1="167.611" x2="54.7036" y2="158.645" gradientUnits="userSpaceOnUse">
<stop stop-color="#6949FF"/>
<stop offset="1" stop-color="#876DFF"/>
</linearGradient>
<linearGradient id="paint2_linear_2133_19955" x1="70.4167" y1="145.798" x2="44.1347" y2="141.144" gradientUnits="userSpaceOnUse">
<stop stop-color="#6949FF"/>
<stop offset="1" stop-color="#876DFF"/>
</linearGradient>
<linearGradient id="paint3_linear_2133_19955" x1="230.224" y1="60.1757" x2="204.756" y2="9.28122" gradientUnits="userSpaceOnUse">
<stop stop-color="#6949FF"/>
<stop offset="1" stop-color="#876DFF"/>
</linearGradient>
<linearGradient id="paint4_linear_2133_19955" x1="231.58" y1="72.7894" x2="206.113" y2="21.8973" gradientUnits="userSpaceOnUse">
<stop stop-color="#6949FF"/>
<stop offset="1" stop-color="#876DFF"/>
</linearGradient>
<linearGradient id="paint5_linear_2133_19955" x1="149.498" y1="85.4032" x2="137.88" y2="75.8133" gradientUnits="userSpaceOnUse">
<stop stop-color="#6949FF"/>
<stop offset="1" stop-color="#876DFF"/>
</linearGradient>
<linearGradient id="paint6_linear_2133_19955" x1="228.146" y1="109.683" x2="201.456" y2="103.1" gradientUnits="userSpaceOnUse">
<stop stop-color="#6949FF"/>
<stop offset="1" stop-color="#876DFF"/>
</linearGradient>
<clipPath id="clip0_2133_19955">
<rect width="340" height="292.813" fill="white" transform="translate(32 4)"/>
</clipPath>
</defs>
</svg>
